<svg xmlns="http://www.w3.org/2000/svg" xmlns:xlink="http://www.w3.org/1999/xlink" width="500" zoomAndPan="magnify" viewBox="0 0 375 374.999991" height="500" preserveAspectRatio="xMidYMid meet" version="1.0"><defs><g/><clipPath id="d3d7494a0e"><path d="M 57.324219 57.324219 L 317.675781 57.324219 L 317.675781 317.675781 L 57.324219 317.675781 Z M 57.324219 57.324219 " clip-rule="nonzero"/></clipPath><clipPath id="cfc4aabf72"><path d="M 187.5 57.324219 C 115.605469 57.324219 57.324219 115.605469 57.324219 187.5 C 57.324219 259.394531 115.605469 317.675781 187.5 317.675781 C 259.394531 317.675781 317.675781 259.394531 317.675781 187.5 C 317.675781 115.605469 259.394531 57.324219 187.5 57.324219 Z M 187.5 57.324219 " clip-rule="nonzero"/></clipPath><clipPath id="5e73d08de0"><path d="M 113.328125 119.078125 L 261.671875 119.078125 L 261.671875 267.421875 L 113.328125 267.421875 Z M 113.328125 119.078125 " clip-rule="nonzero"/></clipPath><clipPath id="01da0fada2"><path d="M 187.5 119.078125 C 146.535156 119.078125 113.328125 152.285156 113.328125 193.25 C 113.328125 234.214844 146.535156 267.421875 187.5 267.421875 C 228.464844 267.421875 261.671875 234.214844 261.671875 193.25 C 261.671875 152.285156 228.464844 119.078125 187.5 119.078125 Z M 187.5 119.078125 " clip-rule="nonzero"/></clipPath><clipPath id="a9cca84a20"><path d="M 119.367188 124.773438 L 255.867188 124.773438 L 255.867188 226 L 119.367188 226 Z M 119.367188 124.773438 " clip-rule="nonzero"/></clipPath><clipPath id="284882fe85"><path d="M 62.578125 173.882812 L 109.171875 173.882812 L 109.171875 201.117188 L 62.578125 201.117188 Z M 62.578125 173.882812 " clip-rule="nonzero"/></clipPath><clipPath id="decd90a0f9"><path d="M 85.851562 173.882812 C 98.707031 173.882812 109.128906 179.980469 109.128906 187.5 C 109.128906 195.019531 98.707031 201.117188 85.851562 201.117188 C 72.996094 201.117188 62.578125 195.019531 62.578125 187.5 C 62.578125 179.980469 72.996094 173.882812 85.851562 173.882812 Z M 85.851562 173.882812 " clip-rule="nonzero"/></clipPath><clipPath id="b3aa8af0ba"><path d="M 265.871094 173.882812 L 312.464844 173.882812 L 312.464844 201.117188 L 265.871094 201.117188 Z M 265.871094 173.882812 " clip-rule="nonzero"/></clipPath><clipPath id="f6a9542e1e"><path d="M 289.148438 173.882812 C 302.003906 173.882812 312.421875 179.980469 312.421875 187.5 C 312.421875 195.019531 302.003906 201.117188 289.148438 201.117188 C 276.292969 201.117188 265.871094 195.019531 265.871094 187.5 C 265.871094 179.980469 276.292969 173.882812 289.148438 173.882812 Z M 289.148438 173.882812 " clip-rule="nonzero"/></clipPath><clipPath id="3c51e59c38"><path d="M 64.757812 175.824219 L 106.996094 175.824219 L 106.996094 199.175781 L 64.757812 199.175781 Z M 64.757812 175.824219 " clip-rule="nonzero"/></clipPath><clipPath id="658bc50c51"><path d="M 86.730469 175.824219 C 97.894531 175.824219 106.945312 181.050781 106.945312 187.5 C 106.945312 193.949219 97.894531 199.175781 86.730469 199.175781 L 84.972656 199.175781 C 73.808594 199.175781 64.757812 193.949219 64.757812 187.5 C 64.757812 181.050781 73.808594 175.824219 84.972656 175.824219 Z M 86.730469 175.824219 " clip-rule="nonzero"/></clipPath><clipPath id="e08990ab1d"><path d="M 268.054688 175.824219 L 310.289062 175.824219 L 310.289062 199.175781 L 268.054688 199.175781 Z M 268.054688 175.824219 " clip-rule="nonzero"/></clipPath><clipPath id="1d5479b3b5"><path d="M 290.027344 175.824219 C 301.191406 175.824219 310.242188 181.050781 310.242188 187.5 C 310.242188 193.949219 301.191406 199.175781 290.027344 199.175781 L 288.269531 199.175781 C 277.105469 199.175781 268.054688 193.949219 268.054688 187.5 C 268.054688 181.050781 277.105469 175.824219 288.269531 175.824219 Z M 290.027344 175.824219 " clip-rule="nonzero"/></clipPath></defs><g clip-path="url(#d3d7494a0e)"><g clip-path="url(#cfc4aabf72)"><path fill="#1e7d63" d="M 57.324219 57.324219 L 317.675781 57.324219 L 317.675781 317.675781 L 57.324219 317.675781 Z M 57.324219 57.324219 " fill-opacity="1" fill-rule="nonzero"/></g></g><g fill="#fffce5" fill-opacity="1"><g transform="translate(113.159505, 168.749758)"><g><path d="M 2.578125 -13.75 C 2.304688 -11.96875 1.800781 -10.351562 1.0625 -8.90625 C 0.320312 -7.46875 -0.628906 -6.253906 -1.796875 -5.265625 C -2.972656 -4.273438 -4.328125 -3.566406 -5.859375 -3.140625 C -7.390625 -2.710938 -9.082031 -2.640625 -10.9375 -2.921875 C -12.675781 -3.179688 -14.171875 -3.742188 -15.421875 -4.609375 C -16.671875 -5.472656 -17.660156 -6.5625 -18.390625 -7.875 C -19.128906 -9.1875 -19.617188 -10.65625 -19.859375 -12.28125 C -20.097656 -13.914062 -20.078125 -15.625 -19.796875 -17.40625 C -19.617188 -18.601562 -19.320312 -19.828125 -18.90625 -21.078125 C -18.488281 -22.335938 -17.945312 -23.578125 -17.28125 -24.796875 L -14.5625 -24.21875 C -16 -22.914062 -17.113281 -21.601562 -17.90625 -20.28125 C -18.695312 -18.957031 -19.1875 -17.691406 -19.375 -16.484375 C -19.601562 -14.992188 -19.40625 -13.601562 -18.78125 -12.3125 C -18.164062 -11.019531 -17.144531 -9.929688 -15.71875 -9.046875 C -14.289062 -8.160156 -12.476562 -7.550781 -10.28125 -7.21875 C -7.84375 -6.84375 -5.742188 -6.929688 -3.984375 -7.484375 C -2.234375 -8.046875 -0.84375 -8.9375 0.1875 -10.15625 C 1.21875 -11.382812 1.859375 -12.8125 2.109375 -14.4375 C 2.285156 -15.550781 2.234375 -16.695312 1.953125 -17.875 L -8.53125 -19.46875 L -7.875 -23.75 L 2.125 -22.21875 C 2.832031 -19.207031 2.984375 -16.382812 2.578125 -13.75 Z M 2.578125 -13.75 "/></g></g></g><g fill="#fffce5" fill-opacity="1"><g transform="translate(117.942221, 142.560176)"><g><path d="M -0.640625 -17.28125 L 9.0625 -16.953125 L 7.015625 -13.125 L -2.921875 -13.34375 C -3.691406 -13.351562 -4.226562 -13.070312 -4.53125 -12.5 C -4.6875 -12.195312 -4.785156 -11.765625 -4.828125 -11.203125 C -4.878906 -10.648438 -4.832031 -10.03125 -4.6875 -9.34375 L 2.84375 -5.328125 L 0.796875 -1.5 L -18.40625 -11.75 L -13.625 -20.703125 C -12.914062 -22.015625 -12.113281 -22.960938 -11.21875 -23.546875 C -10.320312 -24.128906 -9.40625 -24.429688 -8.46875 -24.453125 C -7.53125 -24.472656 -6.644531 -24.257812 -5.8125 -23.8125 C -5.050781 -23.40625 -4.382812 -22.832031 -3.8125 -22.09375 C -3.25 -21.351562 -2.863281 -20.488281 -2.65625 -19.5 C -2.457031 -18.507812 -2.539062 -17.453125 -2.90625 -16.328125 C -2.550781 -16.691406 -2.195312 -16.941406 -1.84375 -17.078125 C -1.488281 -17.210938 -1.085938 -17.28125 -0.640625 -17.28125 Z M -4.484375 -14.421875 C -4.128906 -15.023438 -4.019531 -15.675781 -4.15625 -16.375 C -4.300781 -17.070312 -4.640625 -17.738281 -5.171875 -18.375 C -5.710938 -19.019531 -6.394531 -19.5625 -7.21875 -20 C -8.09375 -20.46875 -8.988281 -20.734375 -9.90625 -20.796875 C -10.820312 -20.859375 -11.664062 -20.679688 -12.4375 -20.265625 C -13.21875 -19.847656 -13.867188 -19.15625 -14.390625 -18.1875 L -15.90625 -15.34375 L -5.109375 -9.578125 C -5.242188 -10.335938 -5.28125 -11.148438 -5.21875 -12.015625 C -5.15625 -12.878906 -4.910156 -13.679688 -4.484375 -14.421875 Z M -4.484375 -14.421875 "/></g></g></g><g fill="#fffce5" fill-opacity="1"><g transform="translate(129.384386, 122.169514)"><g><path d="M -3.921875 -12.84375 L 4.03125 -4.53125 C 5.445312 -5.882812 6.640625 -7.113281 7.609375 -8.21875 C 8.585938 -9.320312 9.390625 -10.40625 10.015625 -11.46875 C 10.648438 -12.53125 11.171875 -13.679688 11.578125 -14.921875 L 13.515625 -12.90625 L 1.234375 -1.171875 L -13.796875 -16.90625 L -1.84375 -28.328125 L 0.078125 -26.3125 C -1.066406 -26 -2.15625 -25.570312 -3.1875 -25.03125 C -4.21875 -24.5 -5.304688 -23.796875 -6.453125 -22.921875 C -7.597656 -22.046875 -8.882812 -20.921875 -10.3125 -19.546875 L -4.265625 -13.203125 L 3.25 -20.390625 L 3.59375 -20.03125 Z M -3.921875 -12.84375 "/></g></g></g><g fill="#fffce5" fill-opacity="1"><g transform="translate(146.549638, 106.42293)"><g><path d="M 0.28125 -13.4375 L 5.234375 -3.0625 C 7.003906 -3.90625 8.523438 -4.703125 9.796875 -5.453125 C 11.066406 -6.203125 12.164062 -6.976562 13.09375 -7.78125 C 14.03125 -8.582031 14.882812 -9.515625 15.65625 -10.578125 L 16.859375 -8.0625 L 1.53125 -0.734375 L -7.859375 -20.375 L 7.0625 -27.5 L 8.265625 -24.96875 C 7.085938 -25.03125 5.925781 -24.96875 4.78125 -24.78125 C 3.632812 -24.601562 2.378906 -24.273438 1.015625 -23.796875 C -0.347656 -23.316406 -1.925781 -22.648438 -3.71875 -21.796875 L 0.0625 -13.890625 L 9.4375 -18.375 L 9.65625 -17.921875 Z M 0.28125 -13.4375 "/></g></g></g><g fill="#fffce5" fill-opacity="1"><g transform="translate(167.675989, 96.726667)"><g><path d="M 3.5625 -0.4375 L 1.46875 -0.171875 C 1.664062 -1.472656 1.742188 -2.691406 1.703125 -3.828125 C 1.660156 -4.972656 1.5625 -6.203125 1.40625 -7.515625 L -0.328125 -21.890625 L 2.6875 -22.25 L 18.921875 -4.15625 L 17.34375 -17.109375 C 17.21875 -18.171875 17.015625 -19.300781 16.734375 -20.5 C 16.453125 -21.707031 16.101562 -22.816406 15.6875 -23.828125 L 17.8125 -24.078125 C 17.664062 -23.003906 17.601562 -21.84375 17.625 -20.59375 C 17.644531 -19.351562 17.71875 -18.210938 17.84375 -17.171875 L 19.640625 -2.375 L 16.03125 -1.9375 L 0.453125 -19.3125 L 1.90625 -7.578125 C 2.050781 -6.398438 2.238281 -5.21875 2.46875 -4.03125 C 2.695312 -2.84375 3.0625 -1.644531 3.5625 -0.4375 Z M 3.5625 -0.4375 "/></g></g></g><g fill="#fffce5" fill-opacity="1"><g transform="translate(192.828189, 95.013977)"><g/></g></g><g fill="#fffce5" fill-opacity="1"><g transform="translate(203.692252, 96.158963)"><g><path d="M 23.375 -14.625 L 22.40625 -12 C 21.769531 -12.894531 21.046875 -13.664062 20.234375 -14.3125 C 19.429688 -14.96875 18.445312 -15.570312 17.28125 -16.125 C 16.125 -16.675781 14.691406 -17.265625 12.984375 -17.890625 L 9.9375 -9.578125 L 18.171875 -6.5625 L 18 -6.09375 L 9.765625 -9.109375 L 5.671875 2.078125 L 1.59375 0.578125 L 9.078125 -19.859375 Z M 23.375 -14.625 "/></g></g></g><g fill="#fffce5" fill-opacity="1"><g transform="translate(224.13897, 104.747824)"><g><path d="M 5.0625 3.3125 L 1.421875 0.9375 L 13.359375 -17.265625 L 17 -14.890625 Z M 5.0625 3.3125 "/></g></g></g><g fill="#fffce5" fill-opacity="1"><g transform="translate(233.873458, 110.760247)"><g><path d="M 12.90625 -3.75 L 4.484375 4.078125 C 5.816406 5.515625 7.03125 6.726562 8.125 7.71875 C 9.21875 8.707031 10.285156 9.523438 11.328125 10.171875 C 12.378906 10.816406 13.53125 11.347656 14.78125 11.765625 L 12.734375 13.671875 L 1.15625 1.25 L 17.09375 -13.578125 L 28.359375 -1.484375 L 26.3125 0.421875 C 26.007812 -0.722656 25.597656 -1.816406 25.078125 -2.859375 C 24.554688 -3.898438 23.863281 -5 23 -6.15625 C 22.132812 -7.3125 21.03125 -8.613281 19.6875 -10.0625 L 13.28125 -4.09375 L 20.359375 3.515625 L 19.984375 3.859375 Z M 12.90625 -3.75 "/></g></g></g><g fill="#fffce5" fill-opacity="1"><g transform="translate(249.320749, 128.321387)"><g><path d="M 7.234375 15.046875 L 0.734375 1.53125 L 20.34375 -7.90625 L 22.234375 -3.984375 L 3.078125 5.234375 C 3.753906 6.648438 4.414062 7.863281 5.0625 8.875 C 5.71875 9.894531 6.414062 10.800781 7.15625 11.59375 C 7.90625 12.382812 8.769531 13.128906 9.75 13.828125 Z M 7.234375 15.046875 "/></g></g></g><g fill="#fffce5" fill-opacity="1"><g transform="translate(258.197261, 147.187297)"><g><path d="M 1.359375 9.703125 L 0.234375 1.6875 L 21.796875 -1.328125 L 22.96875 7.03125 C 23.40625 10.195312 22.898438 12.800781 21.453125 14.84375 C 20.003906 16.894531 17.519531 18.164062 14 18.65625 C 12.019531 18.9375 10.273438 18.878906 8.765625 18.484375 C 7.265625 18.097656 5.992188 17.457031 4.953125 16.5625 C 3.921875 15.675781 3.109375 14.640625 2.515625 13.453125 C 1.921875 12.265625 1.535156 11.015625 1.359375 9.703125 Z M 21.84375 3.046875 L 1.40625 5.90625 L 1.6875 7.9375 C 1.84375 9.101562 2.144531 10.148438 2.59375 11.078125 C 3.039062 12.003906 3.707031 12.765625 4.59375 13.359375 C 5.488281 13.953125 6.648438 14.34375 8.078125 14.53125 C 9.515625 14.71875 11.285156 14.664062 13.390625 14.375 C 15.804688 14.039062 17.691406 13.476562 19.046875 12.6875 C 20.398438 11.90625 21.320312 10.929688 21.8125 9.765625 C 22.3125 8.597656 22.445312 7.269531 22.21875 5.78125 Z M 21.84375 3.046875 "/></g></g></g><g clip-path="url(#5e73d08de0)"><g clip-path="url(#01da0fada2)"><path fill="#fffce5" d="M 113.328125 119.078125 L 261.671875 119.078125 L 261.671875 267.421875 L 113.328125 267.421875 Z M 113.328125 119.078125 " fill-opacity="1" fill-rule="nonzero"/></g></g><g fill="#fffce5" fill-opacity="1"><g transform="translate(85.738039, 214.914846)"><g><path d="M 13.28125 8.234375 C 13.3125 8.316406 13.285156 8.367188 13.203125 8.390625 C 13.128906 8.421875 13.070312 8.398438 13.03125 8.328125 C 12.957031 8.148438 12.882812 7.96875 12.8125 7.78125 C 12.738281 7.601562 12.640625 7.460938 12.515625 7.359375 C 12.390625 7.265625 12.175781 7.253906 11.875 7.328125 L 2.875 9.75 C 2.71875 9.789062 2.617188 9.734375 2.578125 9.578125 C 2.554688 9.492188 2.53125 9.398438 2.5 9.296875 C 2.476562 9.203125 2.453125 9.101562 2.421875 9 C 2.390625 8.863281 2.382812 8.75 2.40625 8.65625 C 2.4375 8.5625 2.484375 8.460938 2.546875 8.359375 L 9.640625 -0.34375 L 1.671875 1.90625 C 1.390625 1.976562 1.210938 2.082031 1.140625 2.21875 C 1.066406 2.363281 1.046875 2.523438 1.078125 2.703125 C 1.117188 2.878906 1.144531 3.066406 1.15625 3.265625 C 1.164062 3.359375 1.128906 3.410156 1.046875 3.421875 C 0.960938 3.429688 0.910156 3.394531 0.890625 3.3125 L 0.109375 0.484375 C 0.0859375 0.390625 0.117188 0.332031 0.203125 0.3125 C 0.285156 0.289062 0.34375 0.316406 0.375 0.390625 C 0.46875 0.566406 0.546875 0.738281 0.609375 0.90625 C 0.671875 1.082031 0.769531 1.207031 0.90625 1.28125 C 1.050781 1.363281 1.269531 1.363281 1.5625 1.28125 L 9.75 -0.84375 C 10.007812 -0.925781 10.164062 -1.023438 10.21875 -1.140625 C 10.28125 -1.265625 10.300781 -1.398438 10.28125 -1.546875 C 10.257812 -1.703125 10.234375 -1.878906 10.203125 -2.078125 C 10.203125 -2.160156 10.238281 -2.207031 10.3125 -2.21875 C 10.394531 -2.238281 10.453125 -2.210938 10.484375 -2.140625 L 10.9375 -0.4375 C 11 -0.1875 11.007812 0 10.96875 0.125 C 10.9375 0.25 10.859375 0.390625 10.734375 0.546875 C 9.640625 1.878906 8.535156 3.222656 7.421875 4.578125 C 6.316406 5.941406 5.21875 7.300781 4.125 8.65625 C 4.050781 8.75 4.03125 8.820312 4.0625 8.875 C 4.09375 8.925781 4.164062 8.9375 4.28125 8.90625 C 5.5625 8.5625 6.828125 8.21875 8.078125 7.875 C 9.328125 7.539062 10.582031 7.203125 11.84375 6.859375 C 12.09375 6.773438 12.242188 6.660156 12.296875 6.515625 C 12.347656 6.367188 12.359375 6.203125 12.328125 6.015625 C 12.304688 5.828125 12.28125 5.640625 12.25 5.453125 C 12.25 5.359375 12.285156 5.300781 12.359375 5.28125 C 12.441406 5.269531 12.492188 5.304688 12.515625 5.390625 Z M 13.28125 8.234375 "/></g></g></g><g fill="#fffce5" fill-opacity="1"><g transform="translate(89.483848, 228.311256)"><g><path d="M 5 11.078125 C 5.019531 11.160156 5 11.210938 4.9375 11.234375 C 4.882812 11.253906 4.84375 11.222656 4.8125 11.140625 C 4.726562 10.941406 4.648438 10.765625 4.578125 10.609375 C 4.515625 10.453125 4.445312 10.285156 4.375 10.109375 L 4.390625 10.109375 L 3.859375 8.890625 L 3.84375 8.890625 C 3.78125 8.722656 3.707031 8.546875 3.625 8.359375 C 3.550781 8.179688 3.46875 7.988281 3.375 7.78125 C 3.34375 7.6875 3.351562 7.628906 3.40625 7.609375 C 3.46875 7.585938 3.519531 7.613281 3.5625 7.6875 C 3.664062 7.84375 3.753906 7.992188 3.828125 8.140625 C 3.898438 8.296875 3.988281 8.390625 4.09375 8.421875 C 4.207031 8.453125 4.359375 8.367188 4.546875 8.171875 C 4.742188 7.972656 4.941406 7.773438 5.140625 7.578125 C 5.335938 7.378906 5.535156 7.175781 5.734375 6.96875 L 3.53125 1.796875 L 1.828125 1.796875 C 1.566406 1.816406 1.421875 1.894531 1.390625 2.03125 C 1.359375 2.164062 1.378906 2.335938 1.453125 2.546875 C 1.523438 2.753906 1.582031 2.941406 1.625 3.109375 C 1.644531 3.203125 1.625 3.257812 1.5625 3.28125 C 1.507812 3.300781 1.460938 3.265625 1.421875 3.171875 C 1.335938 2.972656 1.238281 2.738281 1.125 2.46875 C 1.007812 2.195312 0.914062 1.972656 0.84375 1.796875 L 0.859375 1.796875 L 0.703125 1.4375 L 0.6875 1.4375 C 0.613281 1.269531 0.546875 1.109375 0.484375 0.953125 C 0.421875 0.804688 0.347656 0.628906 0.265625 0.421875 C 0.222656 0.347656 0.226562 0.296875 0.28125 0.265625 C 0.34375 0.242188 0.394531 0.265625 0.4375 0.328125 C 0.539062 0.492188 0.628906 0.65625 0.703125 0.8125 C 0.785156 0.96875 0.90625 1.097656 1.0625 1.203125 C 1.21875 1.316406 1.445312 1.367188 1.75 1.359375 C 3.382812 1.347656 5.019531 1.335938 6.65625 1.328125 C 8.289062 1.328125 9.921875 1.320312 11.546875 1.3125 C 11.828125 1.300781 12.035156 1.320312 12.171875 1.375 C 12.316406 1.425781 12.421875 1.597656 12.484375 1.890625 L 5.109375 9.484375 C 4.921875 9.691406 4.816406 9.878906 4.796875 10.046875 C 4.773438 10.222656 4.789062 10.394531 4.84375 10.5625 C 4.90625 10.726562 4.957031 10.898438 5 11.078125 Z M 3.9375 1.8125 L 6 6.671875 C 6.75 5.898438 7.488281 5.128906 8.21875 4.359375 C 8.957031 3.597656 9.691406 2.835938 10.421875 2.078125 C 10.617188 1.859375 10.578125 1.753906 10.296875 1.765625 Z M 3.9375 1.8125 "/></g></g></g><g fill="#fffce5" fill-opacity="1"><g transform="translate(95.362977, 241.645684)"><g><path d="M 14.21875 3.265625 L 12.546875 4.328125 C 12.484375 4.378906 12.425781 4.367188 12.375 4.296875 C 12.320312 4.222656 12.328125 4.15625 12.390625 4.09375 C 12.648438 3.851562 12.863281 3.65625 13.03125 3.5 C 13.207031 3.34375 13.3125 3.175781 13.34375 3 C 13.375 2.832031 13.335938 2.625 13.234375 2.375 C 13.140625 2.125 12.972656 1.796875 12.734375 1.390625 L 12.203125 0.5 C 12.097656 0.3125 11.96875 0.171875 11.8125 0.078125 C 11.664062 -0.00390625 11.460938 0.0234375 11.203125 0.171875 L 3.921875 4.46875 C 3.671875 4.613281 3.523438 4.757812 3.484375 4.90625 C 3.453125 5.050781 3.46875 5.191406 3.53125 5.328125 C 3.601562 5.472656 3.671875 5.640625 3.734375 5.828125 C 3.773438 5.921875 3.753906 5.984375 3.671875 6.015625 C 3.585938 6.054688 3.523438 6.039062 3.484375 5.96875 L 1.78125 3.078125 C 1.738281 3.003906 1.753906 2.941406 1.828125 2.890625 C 1.898438 2.835938 1.960938 2.835938 2.015625 2.890625 C 2.148438 3.035156 2.257812 3.175781 2.34375 3.3125 C 2.4375 3.445312 2.554688 3.53125 2.703125 3.5625 C 2.847656 3.59375 3.046875 3.535156 3.296875 3.390625 L 10.578125 -0.90625 C 10.835938 -1.050781 10.960938 -1.207031 10.953125 -1.375 C 10.953125 -1.550781 10.90625 -1.722656 10.8125 -1.890625 L 10.296875 -2.765625 C 10.046875 -3.179688 9.832031 -3.492188 9.65625 -3.703125 C 9.488281 -3.910156 9.320312 -4.039062 9.15625 -4.09375 C 8.988281 -4.15625 8.789062 -4.148438 8.5625 -4.078125 C 8.34375 -4.015625 8.070312 -3.925781 7.75 -3.8125 C 7.664062 -3.78125 7.601562 -3.804688 7.5625 -3.890625 C 7.519531 -3.972656 7.539062 -4.03125 7.625 -4.0625 L 9.359375 -5 C 9.398438 -5.019531 9.441406 -4.992188 9.484375 -4.921875 L 14.21875 3.125 C 14.257812 3.195312 14.257812 3.242188 14.21875 3.265625 Z M 14.21875 3.265625 "/></g></g></g><g fill="#fffce5" fill-opacity="1"><g transform="translate(101.717149, 252.305726)"><g><path d="M 15.515625 2.609375 C 15.566406 2.691406 15.5625 2.757812 15.5 2.8125 C 15.445312 2.863281 15.378906 2.859375 15.296875 2.796875 C 15.171875 2.671875 15.035156 2.535156 14.890625 2.390625 C 14.753906 2.242188 14.609375 2.144531 14.453125 2.09375 C 14.296875 2.050781 14.097656 2.128906 13.859375 2.328125 L 9.421875 5.75 C 8.867188 6.175781 8.316406 6.453125 7.765625 6.578125 C 7.210938 6.703125 6.671875 6.703125 6.140625 6.578125 C 5.609375 6.460938 5.109375 6.25 4.640625 5.9375 C 4.179688 5.632812 3.785156 5.269531 3.453125 4.84375 C 3.109375 4.394531 2.847656 3.910156 2.671875 3.390625 C 2.492188 2.867188 2.410156 2.332031 2.421875 1.78125 C 2.441406 1.238281 2.582031 0.710938 2.84375 0.203125 C 3.101562 -0.296875 3.507812 -0.757812 4.0625 -1.1875 L 8.5 -4.609375 C 8.738281 -4.804688 8.863281 -4.972656 8.875 -5.109375 C 8.882812 -5.253906 8.847656 -5.394531 8.765625 -5.53125 C 8.691406 -5.664062 8.601562 -5.816406 8.5 -5.984375 C 8.476562 -6.054688 8.5 -6.117188 8.5625 -6.171875 C 8.625 -6.222656 8.6875 -6.210938 8.75 -6.140625 L 10.796875 -3.484375 C 10.859375 -3.398438 10.859375 -3.332031 10.796875 -3.28125 C 10.734375 -3.226562 10.664062 -3.234375 10.59375 -3.296875 C 10.457031 -3.429688 10.328125 -3.554688 10.203125 -3.671875 C 10.085938 -3.785156 9.960938 -3.851562 9.828125 -3.875 C 9.691406 -3.894531 9.503906 -3.804688 9.265625 -3.609375 L 4.828125 -0.1875 C 4.203125 0.3125 3.785156 0.851562 3.578125 1.4375 C 3.367188 2.03125 3.328125 2.613281 3.453125 3.1875 C 3.578125 3.769531 3.816406 4.296875 4.171875 4.765625 C 4.523438 5.222656 4.972656 5.585938 5.515625 5.859375 C 6.066406 6.128906 6.65625 6.238281 7.28125 6.1875 C 7.90625 6.132812 8.523438 5.867188 9.140625 5.390625 L 13.625 1.921875 C 13.84375 1.753906 13.945312 1.585938 13.9375 1.421875 C 13.925781 1.265625 13.867188 1.101562 13.765625 0.9375 C 13.671875 0.769531 13.578125 0.609375 13.484375 0.453125 C 13.453125 0.378906 13.46875 0.316406 13.53125 0.265625 C 13.601562 0.210938 13.664062 0.222656 13.71875 0.296875 Z M 15.515625 2.609375 "/></g></g></g><g fill="#fffce5" fill-opacity="1"><g transform="translate(110.414155, 263.303804)"><g><path d="M 9.921875 4.578125 C 10.109375 4.753906 10.175781 4.941406 10.125 5.140625 C 10.070312 5.335938 9.960938 5.523438 9.796875 5.703125 C 9.640625 5.890625 9.5 6.035156 9.375 6.140625 C 9.082031 6.429688 8.757812 6.65625 8.40625 6.8125 C 8.0625 6.96875 7.703125 7.023438 7.328125 6.984375 C 6.953125 6.941406 6.582031 6.742188 6.21875 6.390625 C 5.90625 6.078125 5.707031 5.707031 5.625 5.28125 C 5.550781 4.863281 5.535156 4.421875 5.578125 3.953125 C 5.617188 3.492188 5.65625 3.03125 5.6875 2.5625 C 5.726562 2.09375 5.71875 1.648438 5.65625 1.234375 C 5.59375 0.816406 5.40625 0.445312 5.09375 0.125 C 4.976562 0.03125 4.96875 -0.0625 5.0625 -0.15625 C 5.15625 -0.257812 5.242188 -0.253906 5.328125 -0.140625 C 5.410156 -0.0351562 5.445312 0.015625 5.4375 0.015625 C 5.4375 0.0234375 5.484375 0.078125 5.578125 0.171875 C 6.179688 0.773438 6.804688 1.226562 7.453125 1.53125 C 8.109375 1.832031 8.75 1.945312 9.375 1.875 C 10.007812 1.8125 10.582031 1.519531 11.09375 1 C 11.863281 0.226562 12.144531 -0.625 11.9375 -1.5625 C 11.726562 -2.5 11.132812 -3.457031 10.15625 -4.4375 C 10.039062 -4.539062 9.957031 -4.617188 9.90625 -4.671875 C 9.851562 -4.734375 9.800781 -4.785156 9.75 -4.828125 L 9.78125 -4.765625 C 9.625 -4.921875 9.460938 -5.019531 9.296875 -5.0625 C 9.128906 -5.101562 8.945312 -5.019531 8.75 -4.8125 L 2.796875 1.1875 C 2.585938 1.394531 2.476562 1.566406 2.46875 1.703125 C 2.457031 1.847656 2.503906 1.984375 2.609375 2.109375 C 2.722656 2.234375 2.832031 2.378906 2.9375 2.546875 C 2.988281 2.609375 2.984375 2.671875 2.921875 2.734375 C 2.859375 2.796875 2.789062 2.796875 2.71875 2.734375 L 0.34375 0.375 C 0.269531 0.300781 0.265625 0.234375 0.328125 0.171875 C 0.390625 0.109375 0.453125 0.0976562 0.515625 0.140625 C 0.691406 0.253906 0.835938 0.363281 0.953125 0.46875 C 1.066406 0.570312 1.195312 0.617188 1.34375 0.609375 C 1.5 0.609375 1.679688 0.503906 1.890625 0.296875 L 7.8125 -5.671875 C 8.03125 -5.890625 8.132812 -6.070312 8.125 -6.21875 C 8.125 -6.363281 8.078125 -6.5 7.984375 -6.625 C 7.890625 -6.75 7.773438 -6.890625 7.640625 -7.046875 C 7.609375 -7.117188 7.617188 -7.179688 7.671875 -7.234375 C 7.734375 -7.296875 7.800781 -7.289062 7.875 -7.21875 L 11.359375 -3.765625 C 11.941406 -3.191406 12.382812 -2.5625 12.6875 -1.875 C 13 -1.195312 13.125 -0.519531 13.0625 0.15625 C 13 0.832031 12.691406 1.445312 12.140625 2 C 11.722656 2.425781 11.273438 2.703125 10.796875 2.828125 C 10.316406 2.960938 9.828125 2.988281 9.328125 2.90625 C 8.835938 2.820312 8.351562 2.65625 7.875 2.40625 C 7.40625 2.15625 6.960938 1.863281 6.546875 1.53125 C 6.734375 1.820312 6.84375 2.132812 6.875 2.46875 C 6.90625 2.8125 6.90625 3.15625 6.875 3.5 C 6.84375 3.84375 6.8125 4.175781 6.78125 4.5 C 6.757812 4.820312 6.773438 5.125 6.828125 5.40625 C 6.890625 5.6875 7.03125 5.9375 7.25 6.15625 C 7.46875 6.375 7.707031 6.484375 7.96875 6.484375 C 8.238281 6.492188 8.46875 6.421875 8.65625 6.265625 C 8.84375 6.117188 8.945312 5.921875 8.96875 5.671875 C 8.976562 5.429688 8.984375 5.21875 8.984375 5.03125 C 8.984375 4.84375 9.050781 4.679688 9.1875 4.546875 C 9.289062 4.429688 9.414062 4.378906 9.5625 4.390625 C 9.707031 4.410156 9.828125 4.472656 9.921875 4.578125 Z M 9.921875 4.578125 "/></g></g></g><g fill="#fffce5" fill-opacity="1"><g transform="translate(119.94665, 272.528097)"><g><path d="M 8.359375 4.015625 C 8.421875 3.972656 8.484375 3.976562 8.546875 4.03125 C 8.609375 4.082031 8.613281 4.140625 8.5625 4.203125 L 7.421875 5.546875 C 7.378906 5.597656 7.328125 5.597656 7.265625 5.546875 L 0.4375 0.25 C 0.363281 0.1875 0.351562 0.117188 0.40625 0.046875 C 0.46875 -0.015625 0.53125 -0.03125 0.59375 0 C 0.769531 0.09375 0.921875 0.179688 1.046875 0.265625 C 1.179688 0.359375 1.316406 0.390625 1.453125 0.359375 C 1.597656 0.335938 1.757812 0.210938 1.9375 -0.015625 L 7.109375 -6.640625 C 7.296875 -6.878906 7.378906 -7.066406 7.359375 -7.203125 C 7.347656 -7.347656 7.285156 -7.472656 7.171875 -7.578125 C 7.054688 -7.679688 6.929688 -7.8125 6.796875 -7.96875 C 6.742188 -8.019531 6.742188 -8.082031 6.796875 -8.15625 C 6.859375 -8.226562 6.925781 -8.234375 7 -8.171875 L 13.515625 -3.109375 C 13.578125 -3.054688 13.585938 -3.003906 13.546875 -2.953125 L 12.53125 -1.484375 C 12.488281 -1.429688 12.425781 -1.425781 12.34375 -1.46875 C 12.257812 -1.519531 12.238281 -1.582031 12.28125 -1.65625 C 12.457031 -2.007812 12.546875 -2.316406 12.546875 -2.578125 C 12.554688 -2.835938 12.460938 -3.101562 12.265625 -3.375 C 12.066406 -3.65625 11.734375 -3.976562 11.265625 -4.34375 L 9.15625 -6 C 8.988281 -6.125 8.816406 -6.195312 8.640625 -6.21875 C 8.460938 -6.238281 8.285156 -6.132812 8.109375 -5.90625 L 5.484375 -2.53125 L 8.171875 -0.4375 C 8.585938 -0.113281 8.929688 0.0078125 9.203125 -0.0625 C 9.484375 -0.132812 9.707031 -0.265625 9.875 -0.453125 C 9.925781 -0.515625 9.984375 -0.519531 10.046875 -0.46875 C 10.117188 -0.414062 10.128906 -0.347656 10.078125 -0.265625 L 8.546875 1.6875 C 8.503906 1.738281 8.441406 1.738281 8.359375 1.6875 C 8.285156 1.644531 8.273438 1.59375 8.328125 1.53125 C 8.472656 1.3125 8.546875 1.054688 8.546875 0.765625 C 8.554688 0.484375 8.351562 0.179688 7.9375 -0.140625 L 5.25 -2.234375 L 2.90625 0.78125 C 2.75 0.976562 2.691406 1.15625 2.734375 1.3125 C 2.773438 1.46875 2.859375 1.613281 2.984375 1.75 L 5.640625 3.8125 C 6.109375 4.175781 6.484375 4.410156 6.765625 4.515625 C 7.054688 4.617188 7.316406 4.617188 7.546875 4.515625 C 7.785156 4.421875 8.054688 4.253906 8.359375 4.015625 Z M 8.359375 4.015625 "/></g></g></g><g fill="#fffce5" fill-opacity="1"><g transform="translate(129.125334, 279.429429)"><g/></g></g><g fill="#fffce5" fill-opacity="1"><g transform="translate(133.721669, 282.48833)"><g><path d="M 12.890625 -5.09375 L 12.125 -3.484375 C 12.09375 -3.421875 12.035156 -3.40625 11.953125 -3.4375 C 11.878906 -3.46875 11.851562 -3.523438 11.875 -3.609375 C 11.976562 -3.972656 12.015625 -4.285156 11.984375 -4.546875 C 11.953125 -4.816406 11.816406 -5.070312 11.578125 -5.3125 C 11.335938 -5.550781 10.953125 -5.816406 10.421875 -6.109375 L 8.078125 -7.390625 C 7.898438 -7.492188 7.71875 -7.539062 7.53125 -7.53125 C 7.351562 -7.519531 7.195312 -7.382812 7.0625 -7.125 L 5 -3.375 L 7.984375 -1.75 C 8.441406 -1.488281 8.800781 -1.414062 9.0625 -1.53125 C 9.332031 -1.65625 9.53125 -1.828125 9.65625 -2.046875 C 9.707031 -2.117188 9.769531 -2.128906 9.84375 -2.078125 C 9.925781 -2.035156 9.945312 -1.972656 9.90625 -1.890625 L 8.703125 0.296875 C 8.671875 0.359375 8.613281 0.367188 8.53125 0.328125 C 8.457031 0.296875 8.429688 0.242188 8.453125 0.171875 C 8.566406 -0.0546875 8.601562 -0.3125 8.5625 -0.59375 C 8.519531 -0.882812 8.269531 -1.160156 7.8125 -1.421875 L 4.828125 -3.046875 L 3.015625 0.265625 C 2.867188 0.523438 2.816406 0.726562 2.859375 0.875 C 2.910156 1.019531 3.003906 1.132812 3.140625 1.21875 C 3.273438 1.3125 3.414062 1.414062 3.5625 1.53125 C 3.644531 1.59375 3.660156 1.660156 3.609375 1.734375 C 3.554688 1.804688 3.488281 1.820312 3.40625 1.78125 L 0.46875 0.171875 C 0.382812 0.128906 0.363281 0.0703125 0.40625 0 C 0.457031 -0.0820312 0.515625 -0.113281 0.578125 -0.09375 C 0.765625 -0.03125 0.929688 0.03125 1.078125 0.09375 C 1.222656 0.164062 1.363281 0.175781 1.5 0.125 C 1.644531 0.0820312 1.789062 -0.0664062 1.9375 -0.328125 L 5.96875 -7.703125 C 6.113281 -7.960938 6.160156 -8.160156 6.109375 -8.296875 C 6.066406 -8.441406 5.976562 -8.554688 5.84375 -8.640625 C 5.71875 -8.722656 5.578125 -8.828125 5.421875 -8.953125 C 5.367188 -9.003906 5.363281 -9.066406 5.40625 -9.140625 C 5.445312 -9.222656 5.507812 -9.242188 5.59375 -9.203125 L 12.828125 -5.25 C 12.898438 -5.207031 12.921875 -5.15625 12.890625 -5.09375 Z M 12.890625 -5.09375 "/></g></g></g><g fill="#fffce5" fill-opacity="1"><g transform="translate(143.619382, 287.890246)"><g><path d="M 9.765625 -7.890625 C 10.671875 -7.535156 11.40625 -7.078125 11.96875 -6.515625 C 12.539062 -5.960938 12.957031 -5.347656 13.21875 -4.671875 C 13.488281 -3.992188 13.613281 -3.300781 13.59375 -2.59375 C 13.570312 -1.894531 13.429688 -1.210938 13.171875 -0.546875 C 12.921875 0.109375 12.5625 0.695312 12.09375 1.21875 C 11.625 1.75 11.0625 2.171875 10.40625 2.484375 C 9.757812 2.804688 9.035156 2.976562 8.234375 3 C 7.441406 3.019531 6.59375 2.851562 5.6875 2.5 C 4.78125 2.144531 4.039062 1.6875 3.46875 1.125 C 2.894531 0.5625 2.476562 -0.0507812 2.21875 -0.71875 C 1.957031 -1.394531 1.832031 -2.082031 1.84375 -2.78125 C 1.863281 -3.488281 2 -4.171875 2.25 -4.828125 C 2.507812 -5.492188 2.875 -6.085938 3.34375 -6.609375 C 3.820312 -7.140625 4.382812 -7.566406 5.03125 -7.890625 C 5.675781 -8.210938 6.398438 -8.378906 7.203125 -8.390625 C 8.003906 -8.410156 8.859375 -8.242188 9.765625 -7.890625 Z M 5.8125 2.1875 C 6.613281 2.5 7.363281 2.585938 8.0625 2.453125 C 8.769531 2.328125 9.410156 2.039062 9.984375 1.59375 C 10.554688 1.15625 11.035156 0.613281 11.421875 -0.03125 C 11.816406 -0.6875 12.09375 -1.382812 12.25 -2.125 C 12.414062 -2.863281 12.4375 -3.585938 12.3125 -4.296875 C 12.195312 -5.015625 11.921875 -5.660156 11.484375 -6.234375 C 11.054688 -6.816406 10.441406 -7.265625 9.640625 -7.578125 C 8.828125 -7.890625 8.066406 -7.976562 7.359375 -7.84375 C 6.648438 -7.71875 6.007812 -7.429688 5.4375 -6.984375 C 4.875 -6.546875 4.394531 -6 4 -5.34375 C 3.613281 -4.695312 3.34375 -4.003906 3.1875 -3.265625 C 3.03125 -2.523438 3.007812 -1.796875 3.125 -1.078125 C 3.238281 -0.367188 3.507812 0.269531 3.9375 0.84375 C 4.375 1.425781 5 1.875 5.8125 2.1875 Z M 8.625 -2.484375 C 8.675781 -2.421875 8.691406 -2.363281 8.671875 -2.3125 C 8.648438 -2.257812 8.609375 -2.238281 8.546875 -2.25 C 8.429688 -2.25 8.316406 -2.269531 8.203125 -2.3125 C 8.085938 -2.351562 7.992188 -2.347656 7.921875 -2.296875 C 7.835938 -2.273438 7.769531 -2.203125 7.71875 -2.078125 C 7.664062 -1.960938 7.597656 -1.867188 7.515625 -1.796875 C 7.453125 -1.734375 7.394531 -1.710938 7.34375 -1.734375 C 7.289062 -1.753906 7.269531 -1.804688 7.28125 -1.890625 C 7.28125 -1.992188 7.296875 -2.101562 7.328125 -2.21875 C 7.367188 -2.332031 7.375 -2.429688 7.34375 -2.515625 C 7.300781 -2.585938 7.222656 -2.648438 7.109375 -2.703125 C 6.992188 -2.765625 6.90625 -2.832031 6.84375 -2.90625 C 6.78125 -2.96875 6.757812 -3.023438 6.78125 -3.078125 C 6.800781 -3.128906 6.847656 -3.148438 6.921875 -3.140625 C 7.023438 -3.148438 7.132812 -3.132812 7.25 -3.09375 C 7.363281 -3.050781 7.460938 -3.046875 7.546875 -3.078125 C 7.640625 -3.117188 7.707031 -3.195312 7.75 -3.3125 C 7.800781 -3.425781 7.867188 -3.515625 7.953125 -3.578125 C 8.015625 -3.648438 8.070312 -3.675781 8.125 -3.65625 C 8.175781 -3.632812 8.195312 -3.578125 8.1875 -3.484375 C 8.1875 -3.398438 8.164062 -3.296875 8.125 -3.171875 C 8.082031 -3.054688 8.082031 -2.957031 8.125 -2.875 C 8.15625 -2.800781 8.226562 -2.738281 8.34375 -2.6875 C 8.457031 -2.632812 8.550781 -2.566406 8.625 -2.484375 Z M 8.625 -2.484375 "/></g></g></g><g fill="#fffce5" fill-opacity="1"><g transform="translate(157.723658, 293.209424)"><g><path d="M 10.859375 -1.234375 C 11.097656 -1.171875 11.242188 -1.039062 11.296875 -0.84375 C 11.359375 -0.644531 11.367188 -0.425781 11.328125 -0.1875 C 11.285156 0.0390625 11.242188 0.238281 11.203125 0.40625 C 11.097656 0.800781 10.9375 1.15625 10.71875 1.46875 C 10.5 1.789062 10.21875 2.03125 9.875 2.1875 C 9.539062 2.34375 9.128906 2.363281 8.640625 2.25 C 8.203125 2.144531 7.835938 1.929688 7.546875 1.609375 C 7.265625 1.285156 7.019531 0.914062 6.8125 0.5 C 6.613281 0.0820312 6.40625 -0.332031 6.1875 -0.75 C 5.976562 -1.164062 5.738281 -1.535156 5.46875 -1.859375 C 5.195312 -2.191406 4.847656 -2.414062 4.421875 -2.53125 C 4.273438 -2.5625 4.210938 -2.640625 4.234375 -2.765625 C 4.265625 -2.890625 4.347656 -2.925781 4.484375 -2.875 C 4.609375 -2.832031 4.671875 -2.800781 4.671875 -2.78125 C 4.671875 -2.769531 4.738281 -2.75 4.875 -2.71875 C 5.6875 -2.519531 6.453125 -2.460938 7.171875 -2.546875 C 7.890625 -2.628906 8.5 -2.863281 9 -3.25 C 9.5 -3.632812 9.835938 -4.179688 10.015625 -4.890625 C 10.265625 -5.941406 10.0625 -6.816406 9.40625 -7.515625 C 8.75 -8.210938 7.75 -8.722656 6.40625 -9.046875 C 6.25 -9.085938 6.132812 -9.113281 6.0625 -9.125 C 5.988281 -9.144531 5.921875 -9.164062 5.859375 -9.1875 L 5.921875 -9.15625 C 5.703125 -9.207031 5.507812 -9.207031 5.34375 -9.15625 C 5.175781 -9.101562 5.054688 -8.9375 4.984375 -8.65625 L 3 -0.4375 C 2.925781 -0.15625 2.921875 0.0507812 2.984375 0.1875 C 3.046875 0.320312 3.160156 0.410156 3.328125 0.453125 C 3.492188 0.503906 3.660156 0.566406 3.828125 0.640625 C 3.910156 0.671875 3.941406 0.726562 3.921875 0.8125 C 3.898438 0.90625 3.84375 0.941406 3.75 0.921875 L 0.484375 0.140625 C 0.390625 0.109375 0.351562 0.0507812 0.375 -0.03125 C 0.394531 -0.125 0.441406 -0.164062 0.515625 -0.15625 C 0.722656 -0.132812 0.898438 -0.109375 1.046875 -0.078125 C 1.203125 -0.0546875 1.34375 -0.0859375 1.46875 -0.171875 C 1.59375 -0.265625 1.691406 -0.453125 1.765625 -0.734375 L 3.734375 -8.90625 C 3.804688 -9.207031 3.804688 -9.414062 3.734375 -9.53125 C 3.660156 -9.65625 3.550781 -9.742188 3.40625 -9.796875 C 3.257812 -9.847656 3.085938 -9.910156 2.890625 -9.984375 C 2.828125 -10.023438 2.800781 -10.085938 2.8125 -10.171875 C 2.832031 -10.253906 2.890625 -10.28125 2.984375 -10.25 L 7.765625 -9.09375 C 8.554688 -8.90625 9.257812 -8.597656 9.875 -8.171875 C 10.5 -7.753906 10.957031 -7.238281 11.25 -6.625 C 11.550781 -6.007812 11.609375 -5.320312 11.421875 -4.5625 C 11.285156 -3.988281 11.039062 -3.519531 10.6875 -3.15625 C 10.34375 -2.789062 9.9375 -2.519531 9.46875 -2.34375 C 9.007812 -2.164062 8.507812 -2.0625 7.96875 -2.03125 C 7.4375 -2 6.910156 -2.019531 6.390625 -2.09375 C 6.703125 -1.925781 6.957031 -1.703125 7.15625 -1.421875 C 7.351562 -1.148438 7.523438 -0.863281 7.671875 -0.5625 C 7.828125 -0.257812 7.976562 0.0351562 8.125 0.328125 C 8.269531 0.617188 8.441406 0.867188 8.640625 1.078125 C 8.835938 1.296875 9.085938 1.441406 9.390625 1.515625 C 9.679688 1.578125 9.941406 1.539062 10.171875 1.40625 C 10.398438 1.28125 10.554688 1.109375 10.640625 0.890625 C 10.734375 0.671875 10.71875 0.445312 10.59375 0.21875 C 10.488281 0.0078125 10.382812 -0.175781 10.28125 -0.34375 C 10.1875 -0.507812 10.164062 -0.679688 10.21875 -0.859375 C 10.25 -1.015625 10.328125 -1.125 10.453125 -1.1875 C 10.578125 -1.25 10.710938 -1.265625 10.859375 -1.234375 Z M 10.859375 -1.234375 "/></g></g></g><g fill="#fffce5" fill-opacity="1"><g transform="translate(170.570193, 296.055215)"><g/></g></g><g fill="#fffce5" fill-opacity="1"><g transform="translate(176.040849, 296.930907)"><g><path d="M 7.1875 -5.734375 C 7.769531 -5.617188 8.289062 -5.4375 8.75 -5.1875 C 9.21875 -4.9375 9.582031 -4.59375 9.84375 -4.15625 C 10.113281 -3.71875 10.234375 -3.179688 10.203125 -2.546875 C 10.160156 -1.921875 9.941406 -1.382812 9.546875 -0.9375 C 9.148438 -0.5 8.625 -0.175781 7.96875 0.03125 C 7.320312 0.25 6.59375 0.332031 5.78125 0.28125 L 0.5 -0.046875 C 0.414062 -0.0546875 0.375 -0.101562 0.375 -0.1875 C 0.375 -0.28125 0.410156 -0.328125 0.484375 -0.328125 C 0.691406 -0.347656 0.878906 -0.359375 1.046875 -0.359375 C 1.210938 -0.367188 1.34375 -0.421875 1.4375 -0.515625 C 1.539062 -0.617188 1.601562 -0.816406 1.625 -1.109375 C 1.707031 -2.515625 1.789062 -3.914062 1.875 -5.3125 C 1.96875 -6.707031 2.054688 -8.101562 2.140625 -9.5 C 2.160156 -9.800781 2.125 -10.003906 2.03125 -10.109375 C 1.945312 -10.222656 1.820312 -10.289062 1.65625 -10.3125 C 1.488281 -10.332031 1.3125 -10.363281 1.125 -10.40625 C 1.050781 -10.4375 1.019531 -10.492188 1.03125 -10.578125 C 1.039062 -10.671875 1.085938 -10.710938 1.171875 -10.703125 L 6 -10.40625 C 6.351562 -10.382812 6.726562 -10.320312 7.125 -10.21875 C 7.519531 -10.113281 7.882812 -9.960938 8.21875 -9.765625 C 8.550781 -9.578125 8.8125 -9.320312 9 -9 C 9.195312 -8.675781 9.28125 -8.28125 9.25 -7.8125 C 9.226562 -7.351562 9.097656 -6.976562 8.859375 -6.6875 C 8.628906 -6.40625 8.359375 -6.1875 8.046875 -6.03125 C 7.734375 -5.875 7.445312 -5.773438 7.1875 -5.734375 Z M 5.0625 -0.140625 C 5.8125 -0.0859375 6.472656 -0.160156 7.046875 -0.359375 C 7.617188 -0.554688 8.066406 -0.847656 8.390625 -1.234375 C 8.722656 -1.617188 8.910156 -2.078125 8.953125 -2.609375 C 9.003906 -3.472656 8.710938 -4.15625 8.078125 -4.65625 C 7.441406 -5.15625 6.582031 -5.4375 5.5 -5.5 C 5.1875 -5.519531 4.9375 -5.535156 4.75 -5.546875 C 4.570312 -5.566406 4.34375 -5.566406 4.0625 -5.546875 C 3.9375 -5.546875 3.851562 -5.585938 3.8125 -5.671875 C 3.78125 -5.765625 3.785156 -5.851562 3.828125 -5.9375 C 3.878906 -6.03125 3.972656 -6.054688 4.109375 -6.015625 C 4.398438 -5.960938 4.628906 -5.929688 4.796875 -5.921875 C 4.960938 -5.910156 5.1875 -5.898438 5.46875 -5.890625 C 5.945312 -5.859375 6.378906 -5.925781 6.765625 -6.09375 C 7.160156 -6.257812 7.484375 -6.5 7.734375 -6.8125 C 7.984375 -7.125 8.117188 -7.46875 8.140625 -7.84375 C 8.179688 -8.53125 7.953125 -9.054688 7.453125 -9.421875 C 6.960938 -9.785156 6.320312 -9.988281 5.53125 -10.03125 C 5.257812 -10.050781 5.023438 -10.066406 4.828125 -10.078125 C 4.628906 -10.097656 4.421875 -10.113281 4.203125 -10.125 C 3.992188 -10.132812 3.8125 -10.097656 3.65625 -10.015625 C 3.507812 -9.929688 3.425781 -9.742188 3.40625 -9.453125 L 3.390625 -9.609375 C 3.296875 -8.140625 3.203125 -6.675781 3.109375 -5.21875 C 3.023438 -3.769531 2.9375 -2.3125 2.84375 -0.84375 L 2.890625 -1 C 2.867188 -0.707031 2.929688 -0.507812 3.078125 -0.40625 C 3.222656 -0.300781 3.40625 -0.242188 3.625 -0.234375 Z M 5.0625 -0.140625 "/></g></g></g><g fill="#fffce5" fill-opacity="1"><g transform="translate(188.287381, 297.564839)"><g><path d="M 8.9375 -2.421875 C 8.957031 -2.515625 9.007812 -2.554688 9.09375 -2.546875 C 9.175781 -2.546875 9.21875 -2.503906 9.21875 -2.421875 L 9.234375 -0.65625 C 9.242188 -0.59375 9.207031 -0.5625 9.125 -0.5625 L 0.5 -0.109375 C 0.40625 -0.0976562 0.351562 -0.132812 0.34375 -0.21875 C 0.34375 -0.3125 0.378906 -0.367188 0.453125 -0.390625 C 0.648438 -0.429688 0.820312 -0.460938 0.96875 -0.484375 C 1.125 -0.503906 1.25 -0.566406 1.34375 -0.671875 C 1.4375 -0.785156 1.476562 -0.988281 1.46875 -1.28125 L 1.03125 -9.671875 C 1.007812 -9.972656 0.945312 -10.171875 0.84375 -10.265625 C 0.738281 -10.367188 0.609375 -10.421875 0.453125 -10.421875 C 0.296875 -10.429688 0.117188 -10.445312 -0.078125 -10.46875 C -0.148438 -10.476562 -0.1875 -10.523438 -0.1875 -10.609375 C -0.195312 -10.703125 -0.15625 -10.753906 -0.0625 -10.765625 L 8.171875 -11.1875 C 8.253906 -11.195312 8.296875 -11.171875 8.296875 -11.109375 L 8.484375 -9.328125 C 8.492188 -9.253906 8.453125 -9.207031 8.359375 -9.1875 C 8.273438 -9.175781 8.21875 -9.210938 8.1875 -9.296875 C 8.082031 -9.671875 7.945312 -9.957031 7.78125 -10.15625 C 7.613281 -10.363281 7.363281 -10.507812 7.03125 -10.59375 C 6.707031 -10.675781 6.25 -10.703125 5.65625 -10.671875 L 3 -10.53125 C 2.789062 -10.519531 2.613281 -10.460938 2.46875 -10.359375 C 2.320312 -10.253906 2.257812 -10.054688 2.28125 -9.765625 L 2.5 -5.5 L 5.875 -5.6875 C 6.40625 -5.707031 6.75 -5.832031 6.90625 -6.0625 C 7.070312 -6.300781 7.148438 -6.546875 7.140625 -6.796875 C 7.148438 -6.890625 7.195312 -6.9375 7.28125 -6.9375 C 7.375 -6.9375 7.421875 -6.890625 7.421875 -6.796875 L 7.5625 -4.328125 C 7.5625 -4.253906 7.515625 -4.210938 7.421875 -4.203125 C 7.335938 -4.191406 7.289062 -4.222656 7.28125 -4.296875 C 7.257812 -4.554688 7.15625 -4.796875 6.96875 -5.015625 C 6.78125 -5.234375 6.421875 -5.332031 5.890625 -5.3125 L 2.515625 -5.125 L 2.71875 -1.3125 C 2.726562 -1.0625 2.796875 -0.890625 2.921875 -0.796875 C 3.046875 -0.710938 3.203125 -0.65625 3.390625 -0.625 L 6.75 -0.8125 C 7.34375 -0.84375 7.78125 -0.914062 8.0625 -1.03125 C 8.351562 -1.144531 8.554688 -1.3125 8.671875 -1.53125 C 8.785156 -1.757812 8.875 -2.054688 8.9375 -2.421875 Z M 8.9375 -2.421875 "/></g></g></g><g fill="#fffce5" fill-opacity="1"><g transform="translate(199.870441, 296.867787)"><g><path d="M 8.109375 -12.109375 L 8.515625 -10.1875 C 8.535156 -10.101562 8.5 -10.050781 8.40625 -10.03125 C 8.320312 -10.007812 8.265625 -10.039062 8.234375 -10.125 C 8.109375 -10.457031 8 -10.726562 7.90625 -10.9375 C 7.8125 -11.144531 7.691406 -11.296875 7.546875 -11.390625 C 7.410156 -11.492188 7.203125 -11.539062 6.921875 -11.53125 C 6.648438 -11.53125 6.28125 -11.492188 5.8125 -11.421875 L 4.796875 -11.25 C 4.585938 -11.207031 4.414062 -11.128906 4.28125 -11.015625 C 4.15625 -10.898438 4.117188 -10.695312 4.171875 -10.40625 L 5.578125 -2.078125 C 5.628906 -1.785156 5.710938 -1.597656 5.828125 -1.515625 C 5.941406 -1.429688 6.078125 -1.394531 6.234375 -1.40625 C 6.398438 -1.425781 6.582031 -1.429688 6.78125 -1.421875 C 6.875 -1.421875 6.921875 -1.375 6.921875 -1.28125 C 6.929688 -1.195312 6.894531 -1.148438 6.8125 -1.140625 L 3.5 -0.578125 C 3.414062 -0.566406 3.363281 -0.601562 3.34375 -0.6875 C 3.320312 -0.769531 3.347656 -0.828125 3.421875 -0.859375 C 3.609375 -0.929688 3.78125 -0.984375 3.9375 -1.015625 C 4.09375 -1.054688 4.210938 -1.132812 4.296875 -1.25 C 4.378906 -1.375 4.394531 -1.582031 4.34375 -1.875 L 2.9375 -10.203125 C 2.882812 -10.492188 2.773438 -10.671875 2.609375 -10.734375 C 2.441406 -10.796875 2.265625 -10.8125 2.078125 -10.78125 L 1.0625 -10.609375 C 0.582031 -10.523438 0.21875 -10.441406 -0.03125 -10.359375 C -0.28125 -10.273438 -0.460938 -10.160156 -0.578125 -10.015625 C -0.691406 -9.878906 -0.753906 -9.695312 -0.765625 -9.46875 C -0.773438 -9.238281 -0.789062 -8.945312 -0.8125 -8.59375 C -0.8125 -8.507812 -0.851562 -8.460938 -0.9375 -8.453125 C -1.03125 -8.441406 -1.078125 -8.476562 -1.078125 -8.5625 L -1.328125 -10.515625 C -1.335938 -10.566406 -1.304688 -10.597656 -1.234375 -10.609375 L 7.96875 -12.171875 C 8.050781 -12.179688 8.097656 -12.160156 8.109375 -12.109375 Z M 8.109375 -12.109375 "/></g></g></g><g fill="#fffce5" fill-opacity="1"><g transform="translate(212.058166, 294.688609)"><g><path d="M 6.609375 -12.984375 L 7.25 -11.125 C 7.28125 -11.050781 7.25 -11 7.15625 -10.96875 C 7.070312 -10.9375 7.007812 -10.960938 6.96875 -11.046875 C 6.8125 -11.347656 6.675781 -11.597656 6.5625 -11.796875 C 6.445312 -11.992188 6.304688 -12.128906 6.140625 -12.203125 C 5.984375 -12.285156 5.769531 -12.304688 5.5 -12.265625 C 5.238281 -12.234375 4.878906 -12.148438 4.421875 -12.015625 L 3.4375 -11.734375 C 3.238281 -11.671875 3.078125 -11.578125 2.953125 -11.453125 C 2.835938 -11.328125 2.820312 -11.125 2.90625 -10.84375 L 5.296875 -2.734375 C 5.378906 -2.453125 5.484375 -2.269531 5.609375 -2.1875 C 5.734375 -2.113281 5.875 -2.09375 6.03125 -2.125 C 6.195312 -2.164062 6.375 -2.191406 6.5625 -2.203125 C 6.65625 -2.222656 6.707031 -2.1875 6.71875 -2.09375 C 6.738281 -2.007812 6.707031 -1.957031 6.625 -1.9375 L 3.40625 -0.984375 C 3.320312 -0.960938 3.265625 -0.992188 3.234375 -1.078125 C 3.203125 -1.160156 3.222656 -1.21875 3.296875 -1.25 C 3.472656 -1.34375 3.632812 -1.414062 3.78125 -1.46875 C 3.9375 -1.53125 4.046875 -1.625 4.109375 -1.75 C 4.179688 -1.882812 4.175781 -2.09375 4.09375 -2.375 L 1.703125 -10.484375 C 1.617188 -10.765625 1.488281 -10.925781 1.3125 -10.96875 C 1.144531 -11.007812 0.96875 -11.003906 0.78125 -10.953125 L -0.1875 -10.65625 C -0.65625 -10.519531 -1.007812 -10.390625 -1.25 -10.265625 C -1.5 -10.148438 -1.664062 -10.015625 -1.75 -9.859375 C -1.84375 -9.710938 -1.882812 -9.523438 -1.875 -9.296875 C -1.863281 -9.078125 -1.847656 -8.796875 -1.828125 -8.453125 C -1.816406 -8.359375 -1.851562 -8.300781 -1.9375 -8.28125 C -2.03125 -8.257812 -2.082031 -8.289062 -2.09375 -8.375 L -2.578125 -10.28125 C -2.585938 -10.332031 -2.550781 -10.367188 -2.46875 -10.390625 L 6.46875 -13.03125 C 6.550781 -13.050781 6.597656 -13.035156 6.609375 -12.984375 Z M 6.609375 -12.984375 "/></g></g></g><g fill="#fffce5" fill-opacity="1"><g transform="translate(223.882163, 291.066194)"><g><path d="M 7.578125 -5.34375 C 7.566406 -5.425781 7.597656 -5.476562 7.671875 -5.5 C 7.742188 -5.53125 7.800781 -5.507812 7.84375 -5.4375 L 8.46875 -3.78125 C 8.488281 -3.726562 8.457031 -3.6875 8.375 -3.65625 L 0.421875 -0.28125 C 0.335938 -0.238281 0.273438 -0.253906 0.234375 -0.328125 C 0.203125 -0.410156 0.222656 -0.472656 0.296875 -0.515625 C 0.460938 -0.617188 0.613281 -0.707031 0.75 -0.78125 C 0.894531 -0.863281 0.988281 -0.96875 1.03125 -1.09375 C 1.082031 -1.226562 1.050781 -1.429688 0.9375 -1.703125 L -2.359375 -9.4375 C -2.472656 -9.71875 -2.59375 -9.882812 -2.71875 -9.9375 C -2.851562 -10 -2.992188 -10.003906 -3.140625 -9.953125 C -3.285156 -9.898438 -3.457031 -9.851562 -3.65625 -9.8125 C -3.726562 -9.800781 -3.78125 -9.832031 -3.8125 -9.90625 C -3.851562 -9.988281 -3.832031 -10.050781 -3.75 -10.09375 L 3.84375 -13.3125 C 3.925781 -13.34375 3.976562 -13.332031 4 -13.28125 L 4.78125 -11.671875 C 4.8125 -11.597656 4.785156 -11.539062 4.703125 -11.5 C 4.628906 -11.457031 4.566406 -11.472656 4.515625 -11.546875 C 4.285156 -11.859375 4.054688 -12.082031 3.828125 -12.21875 C 3.609375 -12.351562 3.332031 -12.398438 3 -12.359375 C 2.664062 -12.328125 2.222656 -12.195312 1.671875 -11.96875 L -0.78125 -10.921875 C -0.96875 -10.835938 -1.113281 -10.722656 -1.21875 -10.578125 C -1.320312 -10.441406 -1.316406 -10.238281 -1.203125 -9.96875 L 0.46875 -6.03125 L 3.59375 -7.34375 C 4.070312 -7.550781 4.347656 -7.789062 4.421875 -8.0625 C 4.492188 -8.34375 4.484375 -8.601562 4.390625 -8.84375 C 4.367188 -8.9375 4.394531 -9 4.46875 -9.03125 C 4.550781 -9.0625 4.613281 -9.03125 4.65625 -8.9375 L 5.625 -6.65625 C 5.65625 -6.59375 5.628906 -6.539062 5.546875 -6.5 C 5.472656 -6.457031 5.414062 -6.46875 5.375 -6.53125 C 5.257812 -6.757812 5.078125 -6.945312 4.828125 -7.09375 C 4.578125 -7.238281 4.210938 -7.207031 3.734375 -7 L 0.609375 -5.6875 L 2.109375 -2.171875 C 2.203125 -1.941406 2.320312 -1.800781 2.46875 -1.75 C 2.613281 -1.707031 2.785156 -1.710938 2.984375 -1.765625 L 6.078125 -3.078125 C 6.628906 -3.304688 7.015625 -3.519531 7.234375 -3.71875 C 7.460938 -3.925781 7.59375 -4.15625 7.625 -4.40625 C 7.65625 -4.664062 7.640625 -4.976562 7.578125 -5.34375 Z M 7.578125 -5.34375 "/></g></g></g><g fill="#fffce5" fill-opacity="1"><g transform="translate(234.551903, 286.461609)"><g><path d="M 7.03125 -8.359375 C 7.25 -8.484375 7.445312 -8.492188 7.625 -8.390625 C 7.800781 -8.296875 7.957031 -8.144531 8.09375 -7.9375 C 8.226562 -7.738281 8.335938 -7.5625 8.421875 -7.40625 C 8.617188 -7.050781 8.742188 -6.679688 8.796875 -6.296875 C 8.859375 -5.921875 8.816406 -5.554688 8.671875 -5.203125 C 8.535156 -4.847656 8.25 -4.546875 7.8125 -4.296875 C 7.425781 -4.078125 7.019531 -3.984375 6.59375 -4.015625 C 6.164062 -4.054688 5.726562 -4.160156 5.28125 -4.328125 C 4.84375 -4.492188 4.40625 -4.65625 3.96875 -4.8125 C 3.53125 -4.96875 3.101562 -5.066406 2.6875 -5.109375 C 2.269531 -5.160156 1.863281 -5.082031 1.46875 -4.875 C 1.34375 -4.789062 1.242188 -4.804688 1.171875 -4.921875 C 1.109375 -5.035156 1.144531 -5.117188 1.28125 -5.171875 C 1.394531 -5.222656 1.457031 -5.242188 1.46875 -5.234375 C 1.476562 -5.234375 1.539062 -5.265625 1.65625 -5.328125 C 2.382812 -5.753906 2.984375 -6.238281 3.453125 -6.78125 C 3.921875 -7.332031 4.203125 -7.921875 4.296875 -8.546875 C 4.390625 -9.171875 4.253906 -9.800781 3.890625 -10.4375 C 3.359375 -11.375 2.613281 -11.867188 1.65625 -11.921875 C 0.707031 -11.972656 -0.367188 -11.648438 -1.578125 -10.953125 C -1.710938 -10.878906 -1.8125 -10.820312 -1.875 -10.78125 C -1.945312 -10.75 -2.007812 -10.71875 -2.0625 -10.6875 L -2.015625 -10.71875 C -2.203125 -10.601562 -2.335938 -10.46875 -2.421875 -10.3125 C -2.503906 -10.164062 -2.472656 -9.96875 -2.328125 -9.71875 L 1.875 -2.375 C 2.019531 -2.125 2.160156 -1.972656 2.296875 -1.921875 C 2.441406 -1.878906 2.585938 -1.894531 2.734375 -1.96875 C 2.878906 -2.039062 3.046875 -2.109375 3.234375 -2.171875 C 3.304688 -2.203125 3.363281 -2.175781 3.40625 -2.09375 C 3.445312 -2.019531 3.425781 -1.957031 3.34375 -1.90625 L 0.4375 -0.234375 C 0.351562 -0.179688 0.289062 -0.191406 0.25 -0.265625 C 0.207031 -0.347656 0.21875 -0.414062 0.28125 -0.46875 C 0.425781 -0.59375 0.566406 -0.695312 0.703125 -0.78125 C 0.835938 -0.875 0.921875 -0.992188 0.953125 -1.140625 C 0.984375 -1.285156 0.925781 -1.484375 0.78125 -1.734375 L -3.40625 -9.03125 C -3.5625 -9.300781 -3.707031 -9.453125 -3.84375 -9.484375 C -3.976562 -9.515625 -4.117188 -9.5 -4.265625 -9.4375 C -4.421875 -9.382812 -4.585938 -9.320312 -4.765625 -9.25 C -4.835938 -9.21875 -4.894531 -9.238281 -4.9375 -9.3125 C -4.976562 -9.382812 -4.957031 -9.445312 -4.875 -9.5 L -0.609375 -11.953125 C 0.0976562 -12.359375 0.816406 -12.617188 1.546875 -12.734375 C 2.285156 -12.847656 2.972656 -12.785156 3.609375 -12.546875 C 4.253906 -12.304688 4.769531 -11.847656 5.15625 -11.171875 C 5.445312 -10.660156 5.59375 -10.15625 5.59375 -9.65625 C 5.59375 -9.15625 5.484375 -8.675781 5.265625 -8.21875 C 5.054688 -7.769531 4.769531 -7.347656 4.40625 -6.953125 C 4.039062 -6.566406 3.632812 -6.21875 3.1875 -5.90625 C 3.53125 -6.007812 3.867188 -6.03125 4.203125 -5.96875 C 4.535156 -5.914062 4.863281 -5.828125 5.1875 -5.703125 C 5.519531 -5.578125 5.832031 -5.457031 6.125 -5.34375 C 6.425781 -5.238281 6.722656 -5.175781 7.015625 -5.15625 C 7.304688 -5.132812 7.585938 -5.203125 7.859375 -5.359375 C 8.117188 -5.515625 8.285156 -5.71875 8.359375 -5.96875 C 8.441406 -6.21875 8.4375 -6.453125 8.34375 -6.671875 C 8.25 -6.898438 8.082031 -7.054688 7.84375 -7.140625 C 7.625 -7.210938 7.421875 -7.273438 7.234375 -7.328125 C 7.046875 -7.378906 6.90625 -7.484375 6.8125 -7.640625 C 6.726562 -7.785156 6.710938 -7.921875 6.765625 -8.046875 C 6.816406 -8.179688 6.90625 -8.285156 7.03125 -8.359375 Z M 7.03125 -8.359375 "/></g></g></g><g fill="#fffce5" fill-opacity="1"><g transform="translate(245.833163, 279.688715)"><g/></g></g><g fill="#fffce5" fill-opacity="1"><g transform="translate(250.377119, 276.552535)"><g><path d="M 0.046875 -13.859375 L 1.25 -12.5625 C 1.289062 -12.5 1.285156 -12.4375 1.234375 -12.375 C 1.179688 -12.320312 1.117188 -12.316406 1.046875 -12.359375 C 0.742188 -12.597656 0.460938 -12.75 0.203125 -12.8125 C -0.0546875 -12.875 -0.34375 -12.84375 -0.65625 -12.71875 C -0.96875 -12.59375 -1.351562 -12.335938 -1.8125 -11.953125 L -3.875 -10.25 C -4.039062 -10.113281 -4.148438 -9.957031 -4.203125 -9.78125 C -4.253906 -9.613281 -4.1875 -9.414062 -4 -9.1875 L -1.28125 -5.890625 L 1.328125 -8.0625 C 1.742188 -8.394531 1.941406 -8.703125 1.921875 -8.984375 C 1.910156 -9.273438 1.832031 -9.523438 1.6875 -9.734375 C 1.632812 -9.816406 1.644531 -9.878906 1.71875 -9.921875 C 1.789062 -9.972656 1.859375 -9.960938 1.921875 -9.890625 L 3.5 -7.96875 C 3.539062 -7.914062 3.53125 -7.859375 3.46875 -7.796875 C 3.40625 -7.742188 3.347656 -7.742188 3.296875 -7.796875 C 3.117188 -7.984375 2.890625 -8.109375 2.609375 -8.171875 C 2.335938 -8.242188 1.992188 -8.113281 1.578125 -7.78125 L -1.03125 -5.609375 L 1.375 -2.6875 C 1.5625 -2.46875 1.726562 -2.347656 1.875 -2.328125 C 2.03125 -2.316406 2.171875 -2.359375 2.296875 -2.453125 C 2.429688 -2.554688 2.578125 -2.648438 2.734375 -2.734375 C 2.816406 -2.785156 2.882812 -2.773438 2.9375 -2.703125 C 2.988281 -2.640625 2.984375 -2.578125 2.921875 -2.515625 L 0.34375 -0.375 C 0.269531 -0.320312 0.203125 -0.328125 0.140625 -0.390625 C 0.0859375 -0.460938 0.0820312 -0.523438 0.125 -0.578125 C 0.257812 -0.722656 0.382812 -0.847656 0.5 -0.953125 C 0.613281 -1.066406 0.675781 -1.195312 0.6875 -1.34375 C 0.695312 -1.5 0.609375 -1.6875 0.421875 -1.90625 L -4.9375 -8.390625 C -5.132812 -8.617188 -5.300781 -8.738281 -5.4375 -8.75 C -5.582031 -8.769531 -5.71875 -8.734375 -5.84375 -8.640625 C -5.976562 -8.546875 -6.128906 -8.445312 -6.296875 -8.34375 C -6.367188 -8.320312 -6.429688 -8.34375 -6.484375 -8.40625 C -6.546875 -8.476562 -6.539062 -8.539062 -6.46875 -8.59375 L -0.125 -13.859375 C -0.0507812 -13.910156 0.00390625 -13.910156 0.046875 -13.859375 Z M 0.046875 -13.859375 "/></g></g></g><g fill="#fffce5" fill-opacity="1"><g transform="translate(259.027722, 269.353274)"><g><path d="M 0.203125 -15.734375 C 0.265625 -15.804688 0.328125 -15.8125 0.390625 -15.75 C 0.460938 -15.695312 0.472656 -15.628906 0.421875 -15.546875 C 0.316406 -15.410156 0.203125 -15.257812 0.078125 -15.09375 C -0.046875 -14.925781 -0.117188 -14.757812 -0.140625 -14.59375 C -0.160156 -14.4375 -0.0546875 -14.25 0.171875 -14.03125 L 4.25 -10.1875 C 4.75 -9.707031 5.101562 -9.203125 5.3125 -8.671875 C 5.519531 -8.148438 5.601562 -7.617188 5.5625 -7.078125 C 5.519531 -6.535156 5.378906 -6.007812 5.140625 -5.5 C 4.910156 -5 4.609375 -4.550781 4.234375 -4.15625 C 3.847656 -3.75 3.410156 -3.414062 2.921875 -3.15625 C 2.429688 -2.90625 1.921875 -2.742188 1.390625 -2.671875 C 0.859375 -2.609375 0.320312 -2.664062 -0.21875 -2.84375 C -0.757812 -3.019531 -1.28125 -3.347656 -1.78125 -3.828125 L -5.859375 -7.671875 C -6.085938 -7.890625 -6.269531 -7.992188 -6.40625 -7.984375 C -6.550781 -7.972656 -6.679688 -7.921875 -6.796875 -7.828125 C -6.921875 -7.734375 -7.0625 -7.617188 -7.21875 -7.484375 C -7.28125 -7.453125 -7.34375 -7.460938 -7.40625 -7.515625 C -7.46875 -7.578125 -7.46875 -7.640625 -7.40625 -7.703125 L -5.09375 -10.140625 C -5.03125 -10.210938 -4.96875 -10.21875 -4.90625 -10.15625 C -4.84375 -10.101562 -4.832031 -10.035156 -4.875 -9.953125 C -4.988281 -9.804688 -5.09375 -9.664062 -5.1875 -9.53125 C -5.289062 -9.394531 -5.335938 -9.257812 -5.328125 -9.125 C -5.328125 -8.988281 -5.210938 -8.8125 -4.984375 -8.59375 L -0.90625 -4.75 C -0.332031 -4.195312 0.257812 -3.867188 0.875 -3.765625 C 1.488281 -3.660156 2.070312 -3.707031 2.625 -3.90625 C 3.175781 -4.113281 3.65625 -4.425781 4.0625 -4.84375 C 4.457031 -5.269531 4.75 -5.769531 4.9375 -6.34375 C 5.125 -6.925781 5.144531 -7.523438 5 -8.140625 C 4.851562 -8.753906 4.5 -9.328125 3.9375 -9.859375 L -0.1875 -13.75 C -0.382812 -13.945312 -0.5625 -14.023438 -0.71875 -13.984375 C -0.882812 -13.953125 -1.039062 -13.875 -1.1875 -13.75 C -1.332031 -13.632812 -1.476562 -13.515625 -1.625 -13.390625 C -1.695312 -13.347656 -1.757812 -13.359375 -1.8125 -13.421875 C -1.875 -13.484375 -1.875 -13.546875 -1.8125 -13.609375 Z M 0.203125 -15.734375 "/></g></g></g><g fill="#fffce5" fill-opacity="1"><g transform="translate(268.529279, 259.064206)"><g><path d="M -2.640625 -14.328125 L -1.015625 -13.234375 C -0.929688 -13.191406 -0.910156 -13.132812 -0.953125 -13.0625 C -1.003906 -13 -1.070312 -12.976562 -1.15625 -13 C -1.46875 -13.144531 -1.726562 -13.257812 -1.9375 -13.34375 C -2.15625 -13.4375 -2.351562 -13.46875 -2.53125 -13.4375 C -2.707031 -13.40625 -2.890625 -13.289062 -3.078125 -13.09375 C -3.265625 -12.90625 -3.5 -12.617188 -3.78125 -12.234375 L -4.390625 -11.390625 C -4.515625 -11.222656 -4.582031 -11.050781 -4.59375 -10.875 C -4.613281 -10.707031 -4.507812 -10.539062 -4.28125 -10.375 L 2.546875 -5.390625 C 2.773438 -5.210938 2.960938 -5.132812 3.109375 -5.15625 C 3.265625 -5.175781 3.394531 -5.242188 3.5 -5.359375 C 3.601562 -5.484375 3.722656 -5.613281 3.859375 -5.75 C 3.929688 -5.8125 4 -5.8125 4.0625 -5.75 C 4.132812 -5.6875 4.144531 -5.625 4.09375 -5.5625 L 2.109375 -2.84375 C 2.054688 -2.78125 1.992188 -2.769531 1.921875 -2.8125 C 1.847656 -2.863281 1.828125 -2.925781 1.859375 -3 C 1.941406 -3.175781 2.023438 -3.332031 2.109375 -3.46875 C 2.191406 -3.613281 2.21875 -3.753906 2.1875 -3.890625 C 2.164062 -4.035156 2.039062 -4.195312 1.8125 -4.375 L -5.015625 -9.359375 C -5.242188 -9.523438 -5.441406 -9.570312 -5.609375 -9.5 C -5.773438 -9.4375 -5.914062 -9.328125 -6.03125 -9.171875 L -6.625 -8.34375 C -6.914062 -7.945312 -7.125 -7.628906 -7.25 -7.390625 C -7.375 -7.160156 -7.425781 -6.957031 -7.40625 -6.78125 C -7.382812 -6.601562 -7.296875 -6.425781 -7.140625 -6.25 C -6.992188 -6.082031 -6.804688 -5.863281 -6.578125 -5.59375 C -6.503906 -5.539062 -6.5 -5.476562 -6.5625 -5.40625 C -6.625 -5.332031 -6.6875 -5.328125 -6.75 -5.390625 L -8.28125 -6.609375 C -8.320312 -6.640625 -8.320312 -6.6875 -8.28125 -6.75 L -2.765625 -14.28125 C -2.722656 -14.34375 -2.679688 -14.359375 -2.640625 -14.328125 Z M -2.640625 -14.328125 "/></g></g></g><g fill="#fffce5" fill-opacity="1"><g transform="translate(275.798528, 249.005509)"><g><path d="M -3.75 -15.28125 C -3.707031 -15.363281 -3.644531 -15.382812 -3.5625 -15.34375 C -3.488281 -15.3125 -3.46875 -15.25 -3.5 -15.15625 C -3.5625 -14.988281 -3.632812 -14.8125 -3.71875 -14.625 C -3.800781 -14.445312 -3.828125 -14.273438 -3.796875 -14.109375 C -3.773438 -13.941406 -3.628906 -13.785156 -3.359375 -13.640625 L 1.546875 -10.921875 C 2.148438 -10.585938 2.617188 -10.191406 2.953125 -9.734375 C 3.296875 -9.273438 3.515625 -8.78125 3.609375 -8.25 C 3.703125 -7.71875 3.695312 -7.175781 3.59375 -6.625 C 3.5 -6.070312 3.320312 -5.5625 3.0625 -5.09375 C 2.789062 -4.59375 2.445312 -4.160156 2.03125 -3.796875 C 1.625 -3.429688 1.171875 -3.148438 0.671875 -2.953125 C 0.179688 -2.753906 -0.347656 -2.671875 -0.921875 -2.703125 C -1.492188 -2.734375 -2.082031 -2.914062 -2.6875 -3.25 L -7.59375 -5.96875 C -7.863281 -6.113281 -8.066406 -6.164062 -8.203125 -6.125 C -8.347656 -6.082031 -8.460938 -5.992188 -8.546875 -5.859375 C -8.640625 -5.734375 -8.742188 -5.585938 -8.859375 -5.421875 C -8.921875 -5.367188 -8.988281 -5.363281 -9.0625 -5.40625 C -9.132812 -5.445312 -9.148438 -5.507812 -9.109375 -5.59375 L -7.484375 -8.53125 C -7.429688 -8.613281 -7.367188 -8.632812 -7.296875 -8.59375 C -7.222656 -8.550781 -7.195312 -8.488281 -7.21875 -8.40625 C -7.289062 -8.226562 -7.359375 -8.0625 -7.421875 -7.90625 C -7.484375 -7.757812 -7.492188 -7.617188 -7.453125 -7.484375 C -7.410156 -7.359375 -7.253906 -7.222656 -6.984375 -7.078125 L -2.078125 -4.359375 C -1.378906 -3.984375 -0.71875 -3.816406 -0.09375 -3.859375 C 0.519531 -3.898438 1.066406 -4.09375 1.546875 -4.4375 C 2.035156 -4.78125 2.421875 -5.207031 2.703125 -5.71875 C 2.984375 -6.226562 3.140625 -6.785156 3.171875 -7.390625 C 3.203125 -8.003906 3.070312 -8.585938 2.78125 -9.140625 C 2.488281 -9.691406 2.003906 -10.148438 1.328125 -10.515625 L -3.625 -13.265625 C -3.875 -13.398438 -4.070312 -13.429688 -4.21875 -13.359375 C -4.375 -13.296875 -4.503906 -13.179688 -4.609375 -13.015625 C -4.710938 -12.859375 -4.820312 -12.703125 -4.9375 -12.546875 C -5 -12.484375 -5.0625 -12.472656 -5.125 -12.515625 C -5.195312 -12.566406 -5.210938 -12.628906 -5.171875 -12.703125 Z M -3.75 -15.28125 "/></g></g></g><g fill="#fffce5" fill-opacity="1"><g transform="translate(282.441841, 236.657859)"><g><path d="M 0.265625 -10.9375 C 0.347656 -11.164062 0.488281 -11.296875 0.6875 -11.328125 C 0.894531 -11.359375 1.113281 -11.335938 1.34375 -11.265625 C 1.582031 -11.191406 1.773438 -11.117188 1.921875 -11.046875 C 2.296875 -10.898438 2.625 -10.691406 2.90625 -10.421875 C 3.1875 -10.160156 3.382812 -9.847656 3.5 -9.484375 C 3.613281 -9.117188 3.578125 -8.707031 3.390625 -8.25 C 3.234375 -7.832031 2.976562 -7.5 2.625 -7.25 C 2.269531 -7.007812 1.867188 -6.816406 1.421875 -6.671875 C 0.972656 -6.535156 0.53125 -6.390625 0.09375 -6.234375 C -0.34375 -6.078125 -0.742188 -5.890625 -1.109375 -5.671875 C -1.472656 -5.453125 -1.742188 -5.140625 -1.921875 -4.734375 C -1.960938 -4.585938 -2.039062 -4.535156 -2.15625 -4.578125 C -2.28125 -4.617188 -2.304688 -4.707031 -2.234375 -4.84375 C -2.179688 -4.945312 -2.144531 -5 -2.125 -5 C -2.113281 -5.007812 -2.082031 -5.078125 -2.03125 -5.203125 C -1.726562 -5.984375 -1.566406 -6.734375 -1.546875 -7.453125 C -1.535156 -8.171875 -1.6875 -8.800781 -2 -9.34375 C -2.3125 -9.894531 -2.8125 -10.304688 -3.5 -10.578125 C -4.507812 -10.972656 -5.398438 -10.890625 -6.171875 -10.328125 C -6.953125 -9.773438 -7.59375 -8.851562 -8.09375 -7.5625 C -8.15625 -7.414062 -8.195312 -7.304688 -8.21875 -7.234375 C -8.25 -7.160156 -8.28125 -7.09375 -8.3125 -7.03125 L -8.265625 -7.09375 C -8.347656 -6.894531 -8.375 -6.707031 -8.34375 -6.53125 C -8.3125 -6.363281 -8.160156 -6.226562 -7.890625 -6.125 L -0.015625 -3.03125 C 0.253906 -2.925781 0.457031 -2.894531 0.59375 -2.9375 C 0.726562 -2.976562 0.828125 -3.078125 0.890625 -3.234375 C 0.960938 -3.390625 1.050781 -3.546875 1.15625 -3.703125 C 1.195312 -3.773438 1.257812 -3.796875 1.34375 -3.765625 C 1.425781 -3.734375 1.453125 -3.675781 1.421875 -3.59375 L 0.203125 -0.46875 C 0.160156 -0.375 0.0976562 -0.34375 0.015625 -0.375 C -0.0664062 -0.40625 -0.0976562 -0.457031 -0.078125 -0.53125 C -0.046875 -0.738281 -0.00390625 -0.914062 0.046875 -1.0625 C 0.0976562 -1.207031 0.0859375 -1.347656 0.015625 -1.484375 C -0.046875 -1.617188 -0.210938 -1.738281 -0.484375 -1.84375 L -8.3125 -4.90625 C -8.601562 -5.019531 -8.8125 -5.046875 -8.9375 -4.984375 C -9.070312 -4.929688 -9.175781 -4.835938 -9.25 -4.703125 C -9.320312 -4.566406 -9.40625 -4.40625 -9.5 -4.21875 C -9.550781 -4.15625 -9.613281 -4.140625 -9.6875 -4.171875 C -9.769531 -4.203125 -9.789062 -4.265625 -9.75 -4.359375 L -7.953125 -8.9375 C -7.660156 -9.695312 -7.257812 -10.351562 -6.75 -10.90625 C -6.25 -11.457031 -5.675781 -11.835938 -5.03125 -12.046875 C -4.382812 -12.265625 -3.703125 -12.226562 -2.984375 -11.9375 C -2.429688 -11.71875 -1.992188 -11.410156 -1.671875 -11.015625 C -1.359375 -10.628906 -1.144531 -10.191406 -1.03125 -9.703125 C -0.914062 -9.222656 -0.878906 -8.710938 -0.921875 -8.171875 C -0.960938 -7.640625 -1.054688 -7.117188 -1.203125 -6.609375 C -1.003906 -6.898438 -0.753906 -7.125 -0.453125 -7.28125 C -0.148438 -7.445312 0.160156 -7.582031 0.484375 -7.6875 C 0.816406 -7.800781 1.132812 -7.90625 1.4375 -8 C 1.738281 -8.101562 2.003906 -8.238281 2.234375 -8.40625 C 2.472656 -8.570312 2.648438 -8.800781 2.765625 -9.09375 C 2.878906 -9.375 2.882812 -9.640625 2.78125 -9.890625 C 2.6875 -10.140625 2.535156 -10.320312 2.328125 -10.4375 C 2.117188 -10.550781 1.894531 -10.5625 1.65625 -10.46875 C 1.425781 -10.382812 1.222656 -10.304688 1.046875 -10.234375 C 0.878906 -10.160156 0.707031 -10.15625 0.53125 -10.21875 C 0.382812 -10.28125 0.285156 -10.378906 0.234375 -10.515625 C 0.191406 -10.660156 0.203125 -10.800781 0.265625 -10.9375 Z M 0.265625 -10.9375 "/></g></g></g><g fill="#fffce5" fill-opacity="1"><g transform="translate(287.123439, 224.245842)"><g><path d="M 0.390625 -9.25 C 0.304688 -9.289062 0.273438 -9.351562 0.296875 -9.4375 C 0.328125 -9.519531 0.382812 -9.550781 0.46875 -9.53125 L 2.15625 -9.015625 C 2.21875 -8.992188 2.238281 -8.941406 2.21875 -8.859375 L 0.046875 -0.5 C 0.0234375 -0.40625 -0.0234375 -0.367188 -0.109375 -0.390625 C -0.191406 -0.421875 -0.226562 -0.472656 -0.21875 -0.546875 C -0.207031 -0.742188 -0.1875 -0.914062 -0.15625 -1.0625 C -0.132812 -1.21875 -0.160156 -1.359375 -0.234375 -1.484375 C -0.304688 -1.609375 -0.488281 -1.707031 -0.78125 -1.78125 L -8.90625 -3.890625 C -9.195312 -3.972656 -9.40625 -3.976562 -9.53125 -3.90625 C -9.664062 -3.832031 -9.757812 -3.71875 -9.8125 -3.5625 C -9.863281 -3.414062 -9.925781 -3.253906 -10 -3.078125 C -10.039062 -3.003906 -10.101562 -2.976562 -10.1875 -3 C -10.269531 -3.03125 -10.300781 -3.09375 -10.28125 -3.1875 L -8.203125 -11.171875 C -8.179688 -11.253906 -8.140625 -11.285156 -8.078125 -11.265625 L -6.34375 -10.921875 C -6.269531 -10.898438 -6.238281 -10.84375 -6.25 -10.75 C -6.257812 -10.65625 -6.3125 -10.609375 -6.40625 -10.609375 C -6.789062 -10.617188 -7.101562 -10.578125 -7.34375 -10.484375 C -7.582031 -10.390625 -7.789062 -10.195312 -7.96875 -9.90625 C -8.15625 -9.613281 -8.320312 -9.179688 -8.46875 -8.609375 L -9.140625 -6.03125 C -9.191406 -5.820312 -9.1875 -5.632812 -9.125 -5.46875 C -9.070312 -5.300781 -8.90625 -5.179688 -8.625 -5.109375 L -4.484375 -4.03125 L -3.640625 -7.3125 C -3.503906 -7.832031 -3.523438 -8.203125 -3.703125 -8.421875 C -3.890625 -8.648438 -4.101562 -8.800781 -4.34375 -8.875 C -4.425781 -8.90625 -4.453125 -8.960938 -4.421875 -9.046875 C -4.398438 -9.128906 -4.34375 -9.160156 -4.25 -9.140625 L -1.84375 -8.515625 C -1.769531 -8.492188 -1.738281 -8.441406 -1.75 -8.359375 C -1.769531 -8.273438 -1.820312 -8.238281 -1.90625 -8.25 C -2.15625 -8.300781 -2.410156 -8.269531 -2.671875 -8.15625 C -2.941406 -8.050781 -3.144531 -7.738281 -3.28125 -7.21875 L -4.125 -3.9375 L -0.4375 -2.984375 C -0.1875 -2.921875 -0.00390625 -2.9375 0.109375 -3.03125 C 0.234375 -3.125 0.335938 -3.253906 0.421875 -3.421875 L 1.265625 -6.6875 C 1.410156 -7.257812 1.472656 -7.695312 1.453125 -8 C 1.441406 -8.3125 1.34375 -8.554688 1.15625 -8.734375 C 0.976562 -8.921875 0.722656 -9.09375 0.390625 -9.25 Z M 0.390625 -9.25 "/></g></g></g><path fill="#1e7d63" d="M 142.199219 229.234375 C 152.894531 232.359375 163.195312 236.484375 173.089844 241.613281 C 182.988281 246.738281 192.296875 252.765625 201.023438 259.699219 C 199.257812 260.058594 197.480469 260.34375 195.695312 260.558594 C 193.90625 260.773438 192.113281 260.917969 190.3125 260.992188 C 188.511719 261.066406 186.710938 261.066406 184.914062 261 C 183.113281 260.929688 181.320312 260.789062 179.53125 260.578125 C 177.742188 260.367188 175.964844 260.085938 174.199219 259.734375 C 172.429688 259.382812 170.679688 258.960938 168.949219 258.46875 C 167.214844 257.980469 165.503906 257.421875 163.816406 256.796875 C 162.128906 256.167969 160.464844 255.476562 158.832031 254.71875 C 157.199219 253.960938 155.597656 253.140625 154.027344 252.257812 C 152.457031 251.371094 150.925781 250.425781 149.433594 249.421875 C 147.9375 248.414062 146.488281 247.351562 145.078125 246.230469 C 143.667969 245.109375 142.304688 243.9375 140.988281 242.707031 C 139.671875 241.476562 138.402344 240.199219 137.1875 238.871094 C 135.972656 237.542969 134.8125 236.167969 133.707031 234.746094 C 132.597656 233.324219 131.550781 231.863281 130.558594 230.359375 C 129.570312 228.851562 128.640625 227.3125 127.769531 225.734375 C 132.222656 226.605469 137.066406 227.75 142.199219 229.234375 Z M 142.199219 229.234375 " fill-opacity="1" fill-rule="nonzero"/><path fill="#1e7d63" d="M 143.273438 224.832031 C 141.007812 224.175781 138.804688 223.589844 136.667969 223.066406 C 142.113281 223.226562 148.027344 223.574219 154.25 224.21875 C 175.191406 226.378906 203.148438 232.300781 228.097656 247.628906 C 221.5625 252.492188 214.386719 256.066406 206.566406 258.34375 C 199.785156 252.726562 192.625 247.640625 185.082031 243.09375 C 171.945312 235.179688 158.007812 229.09375 143.273438 224.832031 Z M 143.273438 224.832031 " fill-opacity="1" fill-rule="nonzero"/><path fill="#1e7d63" d="M 245.042969 229.367188 C 241.40625 235.101562 237.011719 240.183594 231.859375 244.609375 C 222.519531 238.738281 212.65625 233.949219 202.265625 230.238281 C 187.753906 224.992188 171.714844 221.441406 154.59375 219.6875 C 147.179688 218.921875 140.171875 218.566406 133.863281 218.464844 C 141.480469 216.429688 149.207031 214.988281 157.046875 214.136719 C 178.304688 211.8125 209.972656 212.882812 245.042969 229.367188 Z M 245.042969 229.367188 " fill-opacity="1" fill-rule="nonzero"/><g clip-path="url(#a9cca84a20)"><path fill="#1e7d63" d="M 255.597656 192.933594 C 255.605469 198.609375 254.914062 204.199219 253.515625 209.703125 C 252.121094 215.207031 250.070312 220.453125 247.355469 225.4375 C 233.214844 218.6875 218.433594 213.933594 203.011719 211.167969 C 199.265625 210.507812 195.511719 209.980469 191.746094 209.585938 C 191.5 205.300781 191.875 201.074219 192.867188 196.902344 C 193.335938 197.246094 193.832031 197.539062 194.359375 197.785156 C 194.886719 198.03125 195.429688 198.21875 195.996094 198.355469 C 196.5625 198.492188 197.132812 198.570312 197.714844 198.59375 C 198.292969 198.613281 198.871094 198.578125 199.445312 198.484375 C 200.015625 198.390625 200.574219 198.242188 201.117188 198.035156 C 201.664062 197.832031 202.179688 197.574219 202.671875 197.265625 C 203.164062 196.957031 203.621094 196.601562 204.042969 196.203125 C 204.464844 195.800781 204.839844 195.363281 205.175781 194.890625 C 204.738281 194.535156 204.273438 194.230469 203.78125 193.96875 C 203.285156 193.703125 202.769531 193.492188 202.234375 193.328125 C 201.699219 193.164062 201.15625 193.054688 200.597656 192.996094 C 200.042969 192.9375 199.484375 192.933594 198.925781 192.980469 C 198.371094 193.03125 197.820312 193.132812 197.285156 193.285156 C 196.746094 193.441406 196.226562 193.644531 195.730469 193.898438 C 195.230469 194.152344 194.761719 194.453125 194.320312 194.796875 C 193.878906 195.140625 193.476562 195.523438 193.109375 195.949219 C 193.738281 193.527344 194.5625 191.175781 195.578125 188.890625 C 196.046875 189.242188 196.542969 189.546875 197.070312 189.804688 C 197.601562 190.058594 198.148438 190.257812 198.71875 190.398438 C 199.285156 190.542969 199.863281 190.628906 200.449219 190.65625 C 201.035156 190.683594 201.617188 190.652344 202.199219 190.5625 C 202.777344 190.472656 203.34375 190.328125 203.894531 190.125 C 204.445312 189.917969 204.96875 189.664062 205.464844 189.351562 C 205.964844 189.042969 206.425781 188.6875 206.855469 188.285156 C 207.28125 187.882812 207.664062 187.441406 208 186.960938 C 207.570312 186.613281 207.113281 186.308594 206.625 186.046875 C 206.136719 185.789062 205.625 185.574219 205.097656 185.410156 C 204.570312 185.246094 204.03125 185.132812 203.480469 185.074219 C 202.929688 185.011719 202.378906 185.003906 201.824219 185.046875 C 201.273438 185.089844 200.730469 185.183594 200.195312 185.332031 C 199.664062 185.476562 199.148438 185.671875 198.652344 185.917969 C 198.15625 186.164062 197.6875 186.453125 197.246094 186.785156 C 196.804688 187.121094 196.398438 187.492188 196.027344 187.90625 C 197.101562 185.636719 198.335938 183.457031 199.730469 181.363281 C 200.167969 181.746094 200.636719 182.078125 201.140625 182.363281 C 201.648438 182.648438 202.175781 182.882812 202.726562 183.0625 C 203.277344 183.246094 203.839844 183.371094 204.417969 183.4375 C 204.992188 183.507812 205.570312 183.519531 206.148438 183.472656 C 206.726562 183.425781 207.292969 183.324219 207.851562 183.164062 C 208.410156 183.003906 208.945312 182.792969 209.460938 182.523438 C 209.976562 182.257812 210.457031 181.945312 210.910156 181.582031 C 211.363281 181.21875 211.777344 180.8125 212.148438 180.371094 C 211.777344 180.015625 211.382812 179.695312 210.957031 179.410156 C 210.53125 179.125 210.082031 178.878906 209.613281 178.675781 C 209.144531 178.46875 208.664062 178.304688 208.164062 178.183594 C 207.667969 178.0625 207.164062 177.988281 206.652344 177.957031 C 206.140625 177.921875 205.628906 177.9375 205.121094 177.992188 C 204.613281 178.050781 204.113281 178.152344 203.621094 178.296875 C 203.132812 178.445312 202.65625 178.632812 202.199219 178.859375 C 201.742188 179.089844 201.308594 179.359375 200.898438 179.664062 C 202.386719 177.597656 204.007812 175.636719 205.757812 173.78125 C 206.042969 174.183594 206.367188 174.558594 206.730469 174.898438 C 207.09375 175.238281 207.484375 175.542969 207.902344 175.804688 C 208.324219 176.070312 208.769531 176.289062 209.234375 176.464844 C 209.699219 176.640625 210.175781 176.769531 210.664062 176.851562 C 211.15625 176.933594 211.648438 176.96875 212.144531 176.953125 C 212.640625 176.9375 213.132812 176.875 213.617188 176.761719 C 214.097656 176.648438 214.566406 176.492188 215.019531 176.285156 C 215.472656 176.082031 215.902344 175.835938 216.304688 175.542969 C 216.070312 175.164062 215.804688 174.808594 215.503906 174.472656 C 215.207031 174.140625 214.878906 173.835938 214.527344 173.5625 C 214.175781 173.285156 213.800781 173.046875 213.402344 172.835938 C 213.007812 172.628906 212.597656 172.457031 212.167969 172.320312 C 211.742188 172.1875 211.308594 172.089844 210.863281 172.03125 C 210.421875 171.972656 209.976562 171.957031 209.527344 171.976562 C 209.082031 172 208.640625 172.058594 208.203125 172.160156 C 207.765625 172.261719 207.34375 172.398438 206.933594 172.574219 C 208.519531 170.976562 210.195312 169.480469 211.964844 168.089844 C 211.964844 168.097656 211.964844 168.109375 211.964844 168.117188 C 212.539062 168.285156 213.121094 168.398438 213.71875 168.449219 C 214.3125 168.5 214.90625 168.488281 215.5 168.417969 C 216.09375 168.34375 216.675781 168.214844 217.242188 168.023438 C 217.808594 167.832031 218.347656 167.585938 218.863281 167.285156 C 219.382812 166.984375 219.859375 166.632812 220.304688 166.230469 C 220.75 165.832031 221.148438 165.390625 221.5 164.90625 C 221.855469 164.425781 222.15625 163.914062 222.402344 163.367188 C 222.648438 162.824219 222.839844 162.261719 222.972656 161.679688 C 222.414062 161.511719 221.839844 161.398438 221.257812 161.347656 C 220.675781 161.292969 220.09375 161.300781 219.511719 161.363281 C 218.933594 161.425781 218.363281 161.546875 217.804688 161.726562 C 217.25 161.90625 216.714844 162.136719 216.207031 162.421875 C 215.695312 162.707031 215.21875 163.042969 214.773438 163.421875 C 214.332031 163.804688 213.929688 164.226562 213.574219 164.6875 C 213.214844 165.152344 212.90625 165.644531 212.644531 166.167969 C 212.386719 166.691406 212.179688 167.238281 212.03125 167.800781 C 210.597656 168.597656 209.238281 169.421875 207.960938 170.273438 C 208.492188 169.609375 208.902344 168.878906 209.191406 168.078125 C 209.480469 167.28125 209.632812 166.457031 209.652344 165.609375 C 209.667969 164.761719 209.550781 163.929688 209.292969 163.121094 C 209.039062 162.3125 208.660156 161.566406 208.15625 160.878906 C 207.71875 161.15625 207.316406 161.472656 206.945312 161.832031 C 206.570312 162.1875 206.238281 162.578125 205.945312 163.003906 C 205.648438 163.429688 205.402344 163.878906 205.195312 164.351562 C 204.992188 164.824219 204.835938 165.316406 204.730469 165.820312 C 204.625 166.324219 204.570312 166.835938 204.566406 167.351562 C 204.5625 167.867188 204.613281 168.378906 204.710938 168.886719 C 204.808594 169.394531 204.957031 169.882812 205.15625 170.363281 C 205.351562 170.839844 205.59375 171.289062 205.882812 171.71875 C 204.4375 172.777344 203.101562 173.863281 201.867188 174.972656 C 202.242188 174.203125 202.484375 173.390625 202.59375 172.539062 C 202.699219 171.6875 202.664062 170.839844 202.488281 170 C 202.316406 169.160156 202.007812 168.371094 201.570312 167.632812 C 201.132812 166.894531 200.589844 166.246094 199.9375 165.6875 C 199.582031 166.050781 199.265625 166.449219 198.992188 166.875 C 198.714844 167.300781 198.484375 167.75 198.296875 168.222656 C 198.109375 168.695312 197.96875 169.179688 197.875 169.679688 C 197.785156 170.179688 197.742188 170.683594 197.75 171.191406 C 197.757812 171.699219 197.816406 172.203125 197.921875 172.699219 C 198.027344 173.195312 198.183594 173.679688 198.386719 174.144531 C 198.585938 174.609375 198.832031 175.054688 199.121094 175.472656 C 199.410156 175.890625 199.738281 176.273438 200.101562 176.628906 C 198.910156 177.8125 197.789062 179.054688 196.734375 180.363281 C 196.832031 179.574219 196.8125 178.789062 196.667969 178.003906 C 196.523438 177.222656 196.265625 176.480469 195.890625 175.777344 C 195.515625 175.074219 195.046875 174.445312 194.480469 173.890625 C 193.910156 173.332031 193.273438 172.875 192.5625 172.511719 C 192.3125 172.933594 192.105469 173.371094 191.9375 173.832031 C 191.773438 174.289062 191.652344 174.761719 191.574219 175.242188 C 191.496094 175.722656 191.464844 176.210938 191.480469 176.695312 C 191.492188 177.183594 191.554688 177.667969 191.660156 178.144531 C 191.765625 178.621094 191.914062 179.082031 192.109375 179.53125 C 192.304688 179.980469 192.535156 180.40625 192.8125 180.808594 C 193.085938 181.214844 193.394531 181.585938 193.742188 181.933594 C 194.085938 182.277344 194.460938 182.585938 194.863281 182.859375 C 193.984375 184.132812 193.199219 185.394531 192.507812 186.65625 C 192.503906 185.941406 192.402344 185.242188 192.203125 184.554688 C 191.582031 182.417969 190.714844 181.832031 188.871094 180.894531 C 187.8125 182.660156 186.953125 184.722656 187.570312 186.863281 C 188.109375 188.730469 189.21875 189.292969 190.746094 190.265625 C 189.382812 193.414062 188.40625 196.679688 187.820312 200.058594 C 187.183594 195.082031 185.867188 190.292969 183.871094 185.691406 C 184.382812 185.363281 184.859375 184.988281 185.300781 184.566406 C 185.742188 184.144531 186.136719 183.683594 186.488281 183.1875 C 186.839844 182.691406 187.140625 182.164062 187.390625 181.609375 C 187.640625 181.050781 187.835938 180.476562 187.972656 179.886719 C 188.113281 179.292969 188.195312 178.691406 188.21875 178.082031 C 188.242188 177.472656 188.207031 176.867188 188.113281 176.265625 C 188.023438 175.664062 187.871094 175.078125 187.667969 174.503906 C 187.460938 173.929688 187.199219 173.382812 186.890625 172.859375 C 186.113281 173.253906 185.40625 173.746094 184.765625 174.335938 C 184.125 174.925781 183.574219 175.589844 183.117188 176.332031 C 182.660156 177.074219 182.308594 177.859375 182.070312 178.699219 C 181.828125 179.535156 181.703125 180.386719 181.699219 181.257812 C 180.816406 179.65625 179.851562 178.101562 178.804688 176.601562 C 179.300781 176.265625 179.761719 175.886719 180.1875 175.460938 C 180.609375 175.039062 180.992188 174.578125 181.328125 174.082031 C 181.667969 173.585938 181.953125 173.0625 182.191406 172.511719 C 182.429688 171.964844 182.617188 171.394531 182.746094 170.808594 C 182.875 170.222656 182.949219 169.632812 182.964844 169.03125 C 182.984375 168.433594 182.945312 167.835938 182.847656 167.246094 C 182.753906 166.652344 182.601562 166.074219 182.398438 165.511719 C 182.191406 164.949219 181.933594 164.410156 181.625 163.894531 C 180.757812 164.335938 179.972656 164.898438 179.277344 165.582031 C 178.578125 166.265625 178 167.035156 177.542969 167.898438 C 177.085938 168.761719 176.765625 169.671875 176.589844 170.628906 C 176.414062 171.589844 176.386719 172.554688 176.507812 173.523438 C 175.210938 171.917969 173.832031 170.386719 172.371094 168.933594 C 172.820312 168.5 173.222656 168.027344 173.578125 167.515625 C 173.933594 167 174.238281 166.457031 174.484375 165.882812 C 174.734375 165.3125 174.925781 164.71875 175.058594 164.109375 C 175.1875 163.5 175.257812 162.878906 175.269531 162.253906 C 175.277344 161.632812 175.226562 161.011719 175.113281 160.398438 C 175 159.78125 174.828125 159.183594 174.597656 158.605469 C 174.367188 158.023438 174.078125 157.472656 173.738281 156.949219 C 173.398438 156.425781 173.011719 155.9375 172.574219 155.492188 C 172.175781 155.832031 171.808594 156.199219 171.472656 156.601562 C 171.132812 157 170.832031 157.425781 170.566406 157.875 C 170.296875 158.328125 170.070312 158.796875 169.882812 159.285156 C 169.691406 159.769531 169.542969 160.273438 169.4375 160.785156 C 169.332031 161.296875 169.269531 161.8125 169.246094 162.335938 C 169.226562 162.859375 169.25 163.378906 169.3125 163.898438 C 169.378906 164.417969 169.488281 164.929688 169.636719 165.429688 C 169.785156 165.933594 169.976562 166.417969 170.207031 166.886719 C 168.691406 165.523438 167.042969 164.191406 165.265625 162.890625 C 165.617188 162.363281 165.917969 161.808594 166.160156 161.222656 C 166.402344 160.636719 166.582031 160.035156 166.707031 159.410156 C 166.828125 158.789062 166.886719 158.164062 166.878906 157.527344 C 166.875 156.894531 166.808594 156.269531 166.679688 155.648438 C 166.546875 155.027344 166.359375 154.425781 166.109375 153.84375 C 165.855469 153.261719 165.550781 152.710938 165.191406 152.191406 C 164.828125 151.671875 164.417969 151.191406 163.960938 150.753906 C 163.503906 150.316406 163.007812 149.925781 162.472656 149.585938 C 162.167969 150.003906 161.898438 150.445312 161.664062 150.90625 C 161.429688 151.367188 161.234375 151.84375 161.078125 152.339844 C 160.921875 152.832031 160.804688 153.335938 160.730469 153.847656 C 160.660156 154.359375 160.628906 154.875 160.636719 155.394531 C 160.648438 155.910156 160.703125 156.425781 160.796875 156.933594 C 160.890625 157.441406 161.027344 157.941406 161.207031 158.425781 C 161.382812 158.914062 161.597656 159.382812 161.851562 159.835938 C 162.105469 160.285156 162.394531 160.714844 162.71875 161.117188 C 161.144531 160.074219 159.476562 159.066406 157.714844 158.09375 C 157.53125 157.398438 157.28125 156.730469 156.964844 156.089844 C 156.644531 155.445312 156.265625 154.84375 155.828125 154.277344 C 155.386719 153.710938 154.894531 153.191406 154.351562 152.722656 C 153.808594 152.257812 153.226562 151.847656 152.601562 151.496094 C 151.976562 151.148438 151.320312 150.863281 150.636719 150.640625 C 149.957031 150.421875 149.257812 150.273438 148.546875 150.195312 C 147.832031 150.117188 147.121094 150.109375 146.40625 150.171875 C 145.691406 150.234375 144.992188 150.371094 144.304688 150.574219 C 144.464844 151.292969 144.699219 151.988281 145 152.65625 C 145.304688 153.324219 145.675781 153.957031 146.109375 154.550781 C 146.542969 155.144531 147.03125 155.6875 147.578125 156.183594 C 148.121094 156.675781 148.714844 157.105469 149.347656 157.476562 C 149.980469 157.851562 150.648438 158.152344 151.34375 158.386719 C 152.042969 158.621094 152.753906 158.78125 153.484375 158.871094 C 154.214844 158.957031 154.949219 158.96875 155.679688 158.90625 C 156.414062 158.84375 157.132812 158.707031 157.835938 158.496094 L 157.835938 158.464844 C 160.007812 160.167969 162.066406 162 164.011719 163.960938 C 163.507812 163.746094 162.988281 163.578125 162.453125 163.457031 C 161.917969 163.335938 161.375 163.261719 160.824219 163.234375 C 160.277344 163.210938 159.730469 163.230469 159.1875 163.304688 C 158.640625 163.375 158.109375 163.492188 157.585938 163.660156 C 157.0625 163.824219 156.558594 164.035156 156.070312 164.292969 C 155.585938 164.546875 155.125 164.84375 154.695312 165.183594 C 154.261719 165.519531 153.859375 165.894531 153.492188 166.300781 C 153.128906 166.710938 152.800781 167.148438 152.511719 167.613281 C 153.003906 167.96875 153.53125 168.273438 154.085938 168.527344 C 154.640625 168.777344 155.214844 168.972656 155.808594 169.109375 C 156.40625 169.25 157.007812 169.328125 157.617188 169.347656 C 158.226562 169.367188 158.832031 169.324219 159.433594 169.226562 C 160.035156 169.125 160.621094 168.964844 161.1875 168.75 C 161.757812 168.535156 162.304688 168.265625 162.820312 167.941406 C 163.335938 167.617188 163.816406 167.246094 164.261719 166.828125 C 164.703125 166.410156 165.101562 165.953125 165.457031 165.453125 C 167.601562 167.734375 169.589844 170.140625 171.421875 172.679688 C 170.921875 172.304688 170.386719 171.972656 169.824219 171.691406 C 169.265625 171.410156 168.683594 171.179688 168.082031 171 C 167.476562 170.820312 166.863281 170.695312 166.242188 170.621094 C 165.617188 170.550781 164.992188 170.535156 164.363281 170.574219 C 163.734375 170.609375 163.117188 170.703125 162.507812 170.851562 C 161.894531 171 161.300781 171.199219 160.726562 171.449219 C 160.152344 171.703125 159.601562 172.003906 159.078125 172.351562 C 158.554688 172.699219 158.066406 173.089844 157.613281 173.527344 C 158.070312 174.070312 158.574219 174.566406 159.132812 175.011719 C 159.6875 175.457031 160.28125 175.84375 160.910156 176.171875 C 161.542969 176.5 162.203125 176.761719 162.886719 176.957031 C 163.570312 177.152344 164.269531 177.277344 164.976562 177.335938 C 165.6875 177.390625 166.394531 177.378906 167.101562 177.292969 C 167.808594 177.210938 168.5 177.054688 169.175781 176.832031 C 169.851562 176.613281 170.5 176.324219 171.117188 175.972656 C 171.738281 175.621094 172.316406 175.214844 172.851562 174.746094 C 174.5625 177.3125 176.078125 179.988281 177.398438 182.777344 C 176.945312 182.273438 176.445312 181.8125 175.90625 181.402344 C 175.363281 180.992188 174.789062 180.636719 174.179688 180.339844 C 173.570312 180.039062 172.9375 179.796875 172.28125 179.617188 C 171.628906 179.4375 170.960938 179.320312 170.285156 179.265625 C 169.605469 179.210938 168.929688 179.222656 168.253906 179.296875 C 167.582031 179.375 166.917969 179.511719 166.269531 179.710938 C 165.621094 179.914062 164.996094 180.175781 164.398438 180.496094 C 163.796875 180.816406 163.234375 181.1875 162.707031 181.617188 C 163.121094 182.203125 163.589844 182.746094 164.113281 183.242188 C 164.636719 183.734375 165.203125 184.171875 165.816406 184.550781 C 166.425781 184.933594 167.070312 185.246094 167.746094 185.496094 C 168.421875 185.75 169.113281 185.929688 169.824219 186.039062 C 170.535156 186.148438 171.253906 186.1875 171.972656 186.152344 C 172.691406 186.121094 173.398438 186.015625 174.097656 185.835938 C 174.796875 185.660156 175.46875 185.414062 176.117188 185.101562 C 176.765625 184.789062 177.375 184.414062 177.949219 183.980469 C 179.199219 186.789062 180.214844 189.679688 181 192.652344 C 180.546875 192.132812 180.050781 191.664062 179.507812 191.242188 C 178.964844 190.816406 178.386719 190.449219 177.777344 190.140625 C 177.164062 189.828125 176.527344 189.578125 175.867188 189.390625 C 175.203125 189.199219 174.53125 189.074219 173.847656 189.015625 C 173.164062 188.957031 172.476562 188.964844 171.792969 189.035156 C 171.109375 189.105469 170.441406 189.242188 169.785156 189.445312 C 169.125 189.644531 168.496094 189.90625 167.886719 190.230469 C 167.28125 190.554688 166.710938 190.929688 166.175781 191.363281 C 166.585938 191.945312 167.046875 192.484375 167.566406 192.976562 C 168.082031 193.464844 168.644531 193.902344 169.246094 194.28125 C 169.851562 194.660156 170.484375 194.972656 171.152344 195.226562 C 171.820312 195.476562 172.503906 195.660156 173.207031 195.777344 C 173.914062 195.890625 174.621094 195.9375 175.332031 195.910156 C 176.046875 195.882812 176.746094 195.785156 177.441406 195.621094 C 178.132812 195.453125 178.804688 195.21875 179.449219 194.917969 C 180.097656 194.617188 180.707031 194.257812 181.28125 193.832031 C 182.460938 198.78125 182.933594 203.792969 182.691406 208.875 C 173.898438 208.429688 165.121094 208.6875 156.367188 209.65625 C 145.207031 210.851562 134.304688 213.230469 123.660156 216.792969 C 120.789062 209.097656 119.355469 201.144531 119.367188 192.933594 C 119.367188 155.316406 149.863281 124.820312 187.480469 124.820312 C 225.101562 124.820312 255.597656 155.316406 255.597656 192.933594 Z M 255.597656 192.933594 " fill-opacity="1" fill-rule="nonzero"/></g><g clip-path="url(#284882fe85)"><g clip-path="url(#decd90a0f9)"><path fill="#fffce5" d="M 62.578125 173.882812 L 109.171875 173.882812 L 109.171875 201.117188 L 62.578125 201.117188 Z M 62.578125 173.882812 " fill-opacity="1" fill-rule="nonzero"/></g></g><g clip-path="url(#b3aa8af0ba)"><g clip-path="url(#f6a9542e1e)"><path fill="#fffce5" d="M 265.871094 173.882812 L 312.464844 173.882812 L 312.464844 201.117188 L 265.871094 201.117188 Z M 265.871094 173.882812 " fill-opacity="1" fill-rule="nonzero"/></g></g><g clip-path="url(#3c51e59c38)"><g clip-path="url(#658bc50c51)"><path fill="#1e7d63" d="M 64.757812 175.824219 L 106.902344 175.824219 L 106.902344 199.175781 L 64.757812 199.175781 Z M 64.757812 175.824219 " fill-opacity="1" fill-rule="nonzero"/></g></g><g clip-path="url(#e08990ab1d)"><g clip-path="url(#1d5479b3b5)"><path fill="#1e7d63" d="M 268.054688 175.824219 L 310.199219 175.824219 L 310.199219 199.175781 L 268.054688 199.175781 Z M 268.054688 175.824219 " fill-opacity="1" fill-rule="nonzero"/></g></g><g fill="#fffce5" fill-opacity="1"><g transform="translate(70.942332, 190.499987)"><g><path d="M 3.265625 0.140625 C 2.816406 0.140625 2.347656 0.09375 1.859375 0 C 1.367188 -0.0820312 0.867188 -0.207031 0.359375 -0.375 L 0.4375 -1.28125 C 1.039062 -0.851562 1.597656 -0.539062 2.109375 -0.34375 C 2.617188 -0.15625 3.066406 -0.0625 3.453125 -0.0625 C 3.847656 -0.0625 4.179688 -0.132812 4.453125 -0.28125 C 4.734375 -0.4375 4.929688 -0.640625 5.046875 -0.890625 C 5.171875 -1.140625 5.1875 -1.414062 5.09375 -1.71875 C 5.007812 -1.988281 4.835938 -2.226562 4.578125 -2.4375 C 4.316406 -2.644531 4.003906 -2.835938 3.640625 -3.015625 C 3.273438 -3.191406 2.898438 -3.363281 2.515625 -3.53125 C 2.140625 -3.695312 1.78125 -3.867188 1.4375 -4.046875 C 1.101562 -4.234375 0.828125 -4.4375 0.609375 -4.65625 C 0.398438 -4.875 0.285156 -5.125 0.265625 -5.40625 C 0.253906 -5.8125 0.390625 -6.144531 0.671875 -6.40625 C 0.953125 -6.664062 1.328125 -6.859375 1.796875 -6.984375 C 2.273438 -7.117188 2.796875 -7.1875 3.359375 -7.1875 C 4.179688 -7.1875 5.0625 -7.054688 6 -6.796875 L 5.921875 -5.890625 C 5.359375 -6.253906 4.820312 -6.523438 4.3125 -6.703125 C 3.800781 -6.890625 3.367188 -6.984375 3.015625 -6.984375 C 2.691406 -6.984375 2.398438 -6.945312 2.140625 -6.875 C 1.890625 -6.8125 1.6875 -6.707031 1.53125 -6.5625 C 1.382812 -6.414062 1.316406 -6.222656 1.328125 -5.984375 C 1.335938 -5.796875 1.4375 -5.617188 1.625 -5.453125 C 1.8125 -5.285156 2.050781 -5.125 2.34375 -4.96875 C 2.632812 -4.820312 2.957031 -4.664062 3.3125 -4.5 C 3.664062 -4.34375 4.015625 -4.175781 4.359375 -4 C 4.710938 -3.820312 5.035156 -3.628906 5.328125 -3.421875 C 5.628906 -3.222656 5.875 -3.003906 6.0625 -2.765625 C 6.25 -2.523438 6.347656 -2.253906 6.359375 -1.953125 C 6.378906 -1.503906 6.257812 -1.125 6 -0.8125 C 5.738281 -0.5 5.367188 -0.257812 4.890625 -0.09375 C 4.421875 0.0625 3.878906 0.140625 3.265625 0.140625 Z M 3.265625 0.140625 "/></g></g></g><g fill="#fffce5" fill-opacity="1"><g transform="translate(77.779638, 190.499987)"><g><path d="M 1.953125 0 L 0.546875 0 L 0.546875 -7.015625 L 1.953125 -7.015625 Z M 1.953125 0 "/></g></g></g><g fill="#fffce5" fill-opacity="1"><g transform="translate(80.27865, 190.499987)"><g><path d="M 1.15625 0 L 0.484375 0 C 0.597656 -0.40625 0.664062 -0.789062 0.6875 -1.15625 C 0.71875 -1.519531 0.734375 -1.914062 0.734375 -2.34375 L 0.734375 -7.015625 L 1.71875 -7.015625 L 6.21875 -0.59375 L 6.21875 -4.8125 C 6.21875 -5.15625 6.195312 -5.523438 6.15625 -5.921875 C 6.113281 -6.316406 6.046875 -6.679688 5.953125 -7.015625 L 6.640625 -7.015625 C 6.546875 -6.679688 6.476562 -6.3125 6.4375 -5.90625 C 6.394531 -5.507812 6.375 -5.144531 6.375 -4.8125 L 6.375 0 L 5.203125 0 L 0.890625 -6.171875 L 0.90625 -2.34375 C 0.90625 -1.96875 0.914062 -1.582031 0.9375 -1.1875 C 0.96875 -0.800781 1.039062 -0.40625 1.15625 0 Z M 1.15625 0 "/></g></g></g><g fill="#fffce5" fill-opacity="1"><g transform="translate(87.28589, 190.499987)"><g><path d="M 4.40625 0.15625 C 3.625 0.15625 2.929688 0.015625 2.328125 -0.265625 C 1.734375 -0.546875 1.265625 -0.957031 0.921875 -1.5 C 0.578125 -2.039062 0.40625 -2.707031 0.40625 -3.5 C 0.40625 -4.113281 0.503906 -4.648438 0.703125 -5.109375 C 0.910156 -5.578125 1.195312 -5.96875 1.5625 -6.28125 C 1.925781 -6.59375 2.347656 -6.828125 2.828125 -6.984375 C 3.304688 -7.140625 3.820312 -7.21875 4.375 -7.21875 C 5.113281 -7.21875 5.875 -7.082031 6.65625 -6.8125 L 6.5625 -5.875 C 6.34375 -6.039062 6.125 -6.210938 5.90625 -6.390625 C 5.695312 -6.566406 5.5 -6.710938 5.3125 -6.828125 C 5.125 -6.953125 4.9375 -7.015625 4.75 -7.015625 C 3.820312 -7.015625 3.097656 -6.707031 2.578125 -6.09375 C 2.054688 -5.476562 1.796875 -4.613281 1.796875 -3.5 C 1.796875 -3.03125 1.867188 -2.585938 2.015625 -2.171875 C 2.171875 -1.753906 2.382812 -1.382812 2.65625 -1.0625 C 2.925781 -0.75 3.242188 -0.5 3.609375 -0.3125 C 3.984375 -0.132812 4.382812 -0.046875 4.8125 -0.046875 C 5 -0.046875 5.191406 -0.109375 5.390625 -0.234375 C 5.585938 -0.367188 5.785156 -0.523438 5.984375 -0.703125 C 6.179688 -0.878906 6.367188 -1.03125 6.546875 -1.15625 L 6.65625 -0.1875 C 5.851562 0.0390625 5.101562 0.15625 4.40625 0.15625 Z M 4.40625 0.15625 "/></g></g></g><g fill="#fffce5" fill-opacity="1"><g transform="translate(94.203156, 190.499987)"><g><path d="M 1.953125 -3.875 L 1.953125 -0.15625 C 2.585938 -0.15625 3.140625 -0.175781 3.609375 -0.21875 C 4.078125 -0.257812 4.503906 -0.332031 4.890625 -0.4375 C 5.273438 -0.539062 5.65625 -0.695312 6.03125 -0.90625 L 6.03125 0 L 0.546875 0 L 0.546875 -7.015625 L 5.875 -7.015625 L 5.875 -6.125 C 5.539062 -6.300781 5.191406 -6.441406 4.828125 -6.546875 C 4.472656 -6.648438 4.0625 -6.726562 3.59375 -6.78125 C 3.132812 -6.832031 2.585938 -6.859375 1.953125 -6.859375 L 1.953125 -4.03125 L 5.296875 -4.03125 L 5.296875 -3.875 Z M 1.953125 -3.875 "/></g></g></g><g fill="#fffce5" fill-opacity="1"><g transform="translate(275.105642, 190.499987)"><g><path d="M 2.71875 0 L 1.3125 0 L 1.3125 -6.5625 L 0.34375 -6.203125 L 0.34375 -6.359375 L 2.515625 -7.015625 L 2.71875 -7.015625 Z M 2.71875 0 "/></g></g></g><g fill="#fffce5" fill-opacity="1"><g transform="translate(280.474495, 190.499987)"><g><path d="M 3.578125 -7.1875 C 4.296875 -7.1875 4.921875 -7.035156 5.453125 -6.734375 C 5.992188 -6.441406 6.410156 -6.019531 6.703125 -5.46875 C 7.003906 -4.914062 7.15625 -4.242188 7.15625 -3.453125 C 7.15625 -2.835938 7.054688 -2.296875 6.859375 -1.828125 C 6.660156 -1.367188 6.378906 -0.988281 6.015625 -0.6875 C 5.660156 -0.382812 5.25 -0.15625 4.78125 0 C 4.320312 0.144531 3.832031 0.21875 3.3125 0.21875 C 2.5 0.21875 1.679688 0.0351562 0.859375 -0.328125 L 1.09375 -1.453125 C 1.550781 -0.960938 2.003906 -0.59375 2.453125 -0.34375 C 2.898438 -0.09375 3.3125 0.03125 3.6875 0.03125 C 4.113281 0.03125 4.476562 -0.0976562 4.78125 -0.359375 C 5.082031 -0.628906 5.3125 -1 5.46875 -1.46875 C 5.632812 -1.9375 5.71875 -2.476562 5.71875 -3.09375 C 5.582031 -2.726562 5.378906 -2.421875 5.109375 -2.171875 C 4.847656 -1.921875 4.550781 -1.734375 4.21875 -1.609375 C 3.894531 -1.492188 3.566406 -1.4375 3.234375 -1.4375 C 2.878906 -1.4375 2.535156 -1.492188 2.203125 -1.609375 C 1.867188 -1.734375 1.566406 -1.910156 1.296875 -2.140625 C 1.035156 -2.378906 0.828125 -2.671875 0.671875 -3.015625 C 0.515625 -3.359375 0.4375 -3.753906 0.4375 -4.203125 C 0.4375 -4.710938 0.523438 -5.15625 0.703125 -5.53125 C 0.890625 -5.90625 1.132812 -6.210938 1.4375 -6.453125 C 1.75 -6.703125 2.085938 -6.882812 2.453125 -7 C 2.828125 -7.125 3.203125 -7.1875 3.578125 -7.1875 Z M 3.703125 -7.015625 C 3.390625 -7.015625 3.085938 -6.914062 2.796875 -6.71875 C 2.503906 -6.519531 2.265625 -6.226562 2.078125 -5.84375 C 1.898438 -5.457031 1.8125 -4.988281 1.8125 -4.4375 C 1.8125 -3.8125 1.898438 -3.289062 2.078125 -2.875 C 2.253906 -2.46875 2.484375 -2.160156 2.765625 -1.953125 C 3.046875 -1.753906 3.335938 -1.65625 3.640625 -1.65625 C 3.953125 -1.65625 4.257812 -1.757812 4.5625 -1.96875 C 4.875 -2.1875 5.128906 -2.503906 5.328125 -2.921875 C 5.535156 -3.335938 5.640625 -3.859375 5.640625 -4.484375 C 5.597656 -5.054688 5.476562 -5.53125 5.28125 -5.90625 C 5.082031 -6.28125 4.84375 -6.554688 4.5625 -6.734375 C 4.289062 -6.921875 4.003906 -7.015625 3.703125 -7.015625 Z M 3.703125 -7.015625 "/></g></g></g><g fill="#fffce5" fill-opacity="1"><g transform="translate(290.281596, 190.499987)"><g><path d="M 3.578125 -7.1875 C 4.296875 -7.1875 4.921875 -7.035156 5.453125 -6.734375 C 5.992188 -6.441406 6.410156 -6.019531 6.703125 -5.46875 C 7.003906 -4.914062 7.15625 -4.242188 7.15625 -3.453125 C 7.15625 -2.835938 7.054688 -2.296875 6.859375 -1.828125 C 6.660156 -1.367188 6.378906 -0.988281 6.015625 -0.6875 C 5.660156 -0.382812 5.25 -0.15625 4.78125 0 C 4.320312 0.144531 3.832031 0.21875 3.3125 0.21875 C 2.5 0.21875 1.679688 0.0351562 0.859375 -0.328125 L 1.09375 -1.453125 C 1.550781 -0.960938 2.003906 -0.59375 2.453125 -0.34375 C 2.898438 -0.09375 3.3125 0.03125 3.6875 0.03125 C 4.113281 0.03125 4.476562 -0.0976562 4.78125 -0.359375 C 5.082031 -0.628906 5.3125 -1 5.46875 -1.46875 C 5.632812 -1.9375 5.71875 -2.476562 5.71875 -3.09375 C 5.582031 -2.726562 5.378906 -2.421875 5.109375 -2.171875 C 4.847656 -1.921875 4.550781 -1.734375 4.21875 -1.609375 C 3.894531 -1.492188 3.566406 -1.4375 3.234375 -1.4375 C 2.878906 -1.4375 2.535156 -1.492188 2.203125 -1.609375 C 1.867188 -1.734375 1.566406 -1.910156 1.296875 -2.140625 C 1.035156 -2.378906 0.828125 -2.671875 0.671875 -3.015625 C 0.515625 -3.359375 0.4375 -3.753906 0.4375 -4.203125 C 0.4375 -4.710938 0.523438 -5.15625 0.703125 -5.53125 C 0.890625 -5.90625 1.132812 -6.210938 1.4375 -6.453125 C 1.75 -6.703125 2.085938 -6.882812 2.453125 -7 C 2.828125 -7.125 3.203125 -7.1875 3.578125 -7.1875 Z M 3.703125 -7.015625 C 3.390625 -7.015625 3.085938 -6.914062 2.796875 -6.71875 C 2.503906 -6.519531 2.265625 -6.226562 2.078125 -5.84375 C 1.898438 -5.457031 1.8125 -4.988281 1.8125 -4.4375 C 1.8125 -3.8125 1.898438 -3.289062 2.078125 -2.875 C 2.253906 -2.46875 2.484375 -2.160156 2.765625 -1.953125 C 3.046875 -1.753906 3.335938 -1.65625 3.640625 -1.65625 C 3.953125 -1.65625 4.257812 -1.757812 4.5625 -1.96875 C 4.875 -2.1875 5.128906 -2.503906 5.328125 -2.921875 C 5.535156 -3.335938 5.640625 -3.859375 5.640625 -4.484375 C 5.597656 -5.054688 5.476562 -5.53125 5.28125 -5.90625 C 5.082031 -6.28125 4.84375 -6.554688 4.5625 -6.734375 C 4.289062 -6.921875 4.003906 -7.015625 3.703125 -7.015625 Z M 3.703125 -7.015625 "/></g></g></g><g fill="#fffce5" fill-opacity="1"><g transform="translate(300.088699, 190.499987)"><g><path d="M 2.71875 0 L 1.3125 0 L 1.3125 -6.5625 L 0.34375 -6.203125 L 0.34375 -6.359375 L 2.515625 -7.015625 L 2.71875 -7.015625 Z M 2.71875 0 "/></g></g></g></svg>